<?xml version="1.0" standalone="no"?>
<!DOCTYPE svg PUBLIC "-//W3C//DTD SVG 20010904//EN"
 "http://www.w3.org/TR/2001/REC-SVG-20010904/DTD/svg10.dtd">
<svg version="1.0" xmlns="http://www.w3.org/2000/svg"
 width="1084.000000pt" height="1043.000000pt" viewBox="0 0 1084.000000 1043.000000"
 preserveAspectRatio="xMidYMid meet">

<g transform="translate(0.000000,1043.000000) scale(0.100000,-0.100000)"
fill="#000000" stroke="none">
<path d="M4960 10340 c-276 -20 -411 -40 -770 -111 -139 -28 -173 -36 -390
-92 -286 -74 -766 -267 -1052 -423 -328 -179 -520 -307 -813 -543 -390 -313
-730 -674 -998 -1058 -21 -29 -52 -74 -70 -100 -65 -94 -220 -357 -291 -496
-241 -471 -423 -1049 -492 -1567 -43 -319 -47 -385 -48 -740 0 -195 5 -417 12
-492 11 -131 48 -409 57 -436 3 -7 10 -43 15 -80 15 -96 76 -348 117 -482 31
-104 46 -149 104 -315 75 -215 263 -620 392 -844 210 -365 518 -771 799 -1053
204 -204 494 -445 703 -584 33 -22 83 -56 110 -75 149 -104 498 -295 708 -388
112 -50 136 -60 200 -85 37 -14 95 -37 130 -50 86 -34 324 -112 432 -142 82
-23 126 -34 320 -80 120 -28 263 -55 415 -76 145 -21 196 -23 815 -26 626 -2
668 -2 810 18 164 23 360 56 415 70 19 5 73 18 120 29 160 38 290 71 312 80
13 5 84 28 158 51 74 23 182 60 240 82 187 71 285 111 305 124 11 6 31 15 45
19 31 9 318 150 420 205 386 212 731 458 1021 726 319 296 611 651 856 1043
299 478 504 996 637 1608 112 515 135 1160 61 1713 -116 862 -428 1651 -936
2367 -325 457 -648 781 -1179 1181 -56 43 -273 184 -390 254 -438 264 -928
470 -1401 592 -305 78 -582 131 -809 156 -84 9 -114 11 -405 30 -208 13 -398
11 -685 -10z m769 -70 c47 -5 142 -14 211 -20 259 -23 585 -84 850 -160 80
-22 174 -49 210 -59 36 -10 83 -25 105 -34 22 -8 90 -33 150 -55 362 -132 681
-289 1050 -516 61 -37 137 -88 170 -113 33 -24 110 -81 170 -125 180 -132 329
-262 526 -458 311 -311 521 -574 745 -937 293 -473 536 -1120 629 -1673 14
-85 30 -180 35 -210 18 -105 40 -446 40 -630 0 -880 -202 -1608 -639 -2307
-79 -127 -234 -343 -268 -375 -25 -22 -121 -63 -130 -55 -2 2 41 62 95 133
170 225 290 422 443 724 192 385 288 694 376 1215 26 156 27 170 27 595 1 391
-2 453 -22 612 -59 470 -204 999 -376 1371 -20 43 -36 81 -36 83 0 11 -155
312 -206 401 -138 240 -356 541 -552 763 -109 123 -405 417 -487 482 -38 31
-99 80 -135 109 -186 152 -438 323 -645 439 -579 324 -1058 504 -1665 623 -96
19 -202 38 -235 41 -33 4 -82 11 -110 16 -101 20 -433 40 -645 40 -437 0 -727
-32 -1195 -131 -254 -54 -455 -109 -600 -164 -66 -25 -139 -53 -163 -61 -23
-8 -79 -31 -125 -51 -45 -19 -119 -50 -165 -69 -176 -72 -644 -330 -757 -417
-5 -4 -75 -55 -155 -113 -609 -443 -1115 -1031 -1464 -1699 -195 -373 -356
-850 -435 -1285 -65 -362 -76 -482 -75 -860 0 -368 8 -471 60 -795 45 -275
105 -508 199 -765 112 -307 212 -512 384 -790 65 -107 273 -394 301 -418 44
-37 325 -159 475 -207 22 -7 119 -40 215 -74 148 -53 449 -143 685 -207 33 -9
80 -22 105 -30 174 -53 727 -164 1130 -228 263 -42 684 -81 1030 -97 283 -13
1041 -7 1280 11 832 60 1540 188 2395 433 145 42 498 161 650 219 225 87 249
96 309 123 61 27 96 30 55 4 -21 -13 -121 -60 -249 -117 -248 -110 -602 -234
-910 -321 -19 -5 -66 -18 -105 -30 -466 -133 -1195 -277 -1680 -331 -409 -46
-1032 -75 -1405 -65 -703 17 -1238 75 -1860 202 -124 25 -245 49 -270 53 -25
5 -52 11 -60 14 -8 3 -44 12 -80 20 -330 72 -963 266 -1259 386 -107 43 -177
75 -356 160 -59 28 -121 54 -138 57 -110 22 -435 509 -614 918 -123 283 -222
595 -298 944 -65 302 -102 897 -76 1241 71 935 361 1738 899 2489 42 58 79
108 82 111 4 3 11 12 16 21 5 10 32 43 59 75 28 32 79 92 114 134 96 112 200
218 396 406 65 63 342 292 440 364 126 93 254 178 363 241 52 30 119 69 150
88 82 48 326 169 477 236 236 104 649 244 890 302 114 27 440 91 550 108 301
46 884 70 1104 45z m-274 -491 c115 -21 211 -94 258 -197 33 -71 30 -190 -7
-265 -25 -52 -84 -117 -106 -117 -17 0 -11 26 9 44 10 10 21 26 24 37 4 16 2
19 -16 14 -38 -11 -67 -28 -61 -37 7 -12 4 -11 -48 16 -28 14 -75 27 -118 31
-38 4 -70 11 -70 15 0 5 -17 11 -38 15 -21 3 -50 17 -65 31 -14 13 -29 24 -33
24 -18 0 -52 53 -70 109 l-21 61 -18 -33 c-14 -27 -17 -49 -13 -114 4 -68 9
-88 36 -132 34 -55 40 -75 20 -69 -23 8 -77 110 -91 172 -16 74 -7 147 29 217
73 145 221 211 399 178z m-803 -117 c125 -61 172 -141 182 -305 4 -68 12 -122
22 -143 21 -43 81 -92 155 -127 48 -22 57 -30 61 -56 3 -17 2 -33 0 -36 -26
-26 -161 35 -230 104 -79 79 -99 115 -122 224 -19 85 -26 101 -57 132 -20 19
-41 35 -47 36 -42 3 -59 9 -113 42 -55 34 -67 37 -135 37 -125 0 -161 -8 -538
-126 -129 -41 -284 -85 -345 -99 -226 -53 -333 -74 -420 -84 -160 -19 -250
-33 -262 -43 -6 -5 -10 -20 -8 -34 2 -24 0 -26 -29 -20 -79 16 -156 80 -128
108 5 5 60 16 123 24 279 36 492 78 671 130 67 20 152 44 188 54 36 10 146 43
245 75 428 137 462 145 610 142 103 -2 115 -4 177 -35z m1915 -1 c56 -17 162
-51 235 -77 185 -64 202 -69 458 -145 218 -64 516 -117 785 -137 l90 -7 3 -32
c4 -41 -37 -73 -135 -102 -70 -21 -129 -28 -107 -13 6 4 15 21 18 39 6 25 3
34 -11 41 -23 13 -158 32 -219 32 -56 0 -231 37 -429 90 -82 22 -177 48 -210
56 -33 9 -101 31 -151 49 -51 19 -154 51 -230 71 -128 34 -150 37 -279 38
-131 0 -144 -1 -196 -26 -31 -15 -59 -34 -63 -43 -3 -9 -10 -14 -15 -10 -6 3
-15 -4 -21 -15 -6 -11 -7 -20 -3 -20 4 0 3 -4 -2 -8 -6 -4 -18 -34 -29 -67
-10 -33 -25 -80 -32 -104 -21 -68 -58 -124 -119 -180 -44 -40 -71 -55 -123
-70 -113 -33 -122 -34 -122 -14 0 10 -3 28 -6 40 -5 18 0 22 28 28 87 20 163
73 200 142 20 36 28 70 33 138 9 107 27 159 78 220 81 96 169 127 347 121 102
-4 143 -10 227 -35z m245 -284 c51 -9 55 -12 40 -24 -15 -13 -12 -14 26 -10
28 4 40 2 35 -6 -4 -6 0 -8 10 -4 26 10 20 -9 -9 -32 -21 -16 -41 -21 -89 -21
-63 0 -103 10 -186 48 -24 11 -61 27 -81 35 -21 9 -38 18 -38 21 0 7 63 -5 70
-13 8 -10 105 -7 107 3 2 15 27 26 43 20 8 -3 41 -11 72 -17z m-2582 -2 c-7
-8 -16 -15 -21 -15 -5 0 -32 -11 -61 -24 -68 -31 -144 -56 -166 -55 -13 0 -11
3 6 9 21 9 33 18 67 48 8 7 28 15 44 18 17 4 31 11 31 16 0 6 11 7 24 4 13 -3
35 -2 48 3 34 14 42 13 28 -4z m2368 -88 c68 -27 126 -56 129 -64 3 -7 -1 -20
-8 -29 -45 -54 -155 -63 -259 -20 -65 27 -130 65 -130 78 0 4 20 17 45 29 58
29 74 47 54 60 -30 21 50 -5 169 -54z m-2361 16 c-3 -5 16 -8 41 -8 26 0 73
-9 105 -19 l57 -18 -22 -18 c-35 -26 -117 -65 -170 -80 -90 -24 -213 5 -213
51 0 7 43 32 95 56 95 43 115 49 107 36z m1247 -63 c56 -21 116 -76 116 -106
0 -12 -10 -8 -35 15 -36 31 -114 59 -175 63 -19 1 -72 -2 -117 -7 -46 -4 -83
-5 -83 -2 0 8 56 37 90 48 50 15 148 9 204 -11z m899 -86 c68 -33 97 -53 97
-65 0 -65 -146 -88 -240 -38 -79 42 -107 81 -85 122 7 14 11 28 7 31 -3 3 2 6
10 6 9 0 19 11 22 25 l7 26 42 -30 c24 -16 87 -51 140 -77z m-1779 2 c6 -24 1
-34 -35 -68 -23 -22 -57 -47 -75 -54 -76 -32 -205 -6 -212 43 -4 24 10 34 162
122 l87 49 33 -31 c18 -18 36 -45 40 -61z m2778 -21 c46 -14 97 -30 113 -35
17 -5 59 -14 95 -20 125 -21 161 -41 141 -79 -19 -35 -166 -71 -294 -71 -94 0
-152 14 -286 67 l-95 38 39 10 c24 7 44 20 50 33 6 14 22 24 45 28 60 11 113
36 98 45 -24 16 8 10 94 -16z m-1898 -15 c23 -10 49 -26 56 -35 11 -14 10 -17
-8 -22 -20 -5 -20 -7 -5 -29 8 -14 11 -24 5 -24 -6 0 -13 4 -16 9 -7 11 -120
45 -191 57 -42 8 -49 12 -47 29 6 29 20 35 95 35 46 0 82 -6 111 -20z m-2096
-8 l-27 -18 40 -1 c23 -1 37 2 34 8 -4 5 15 -2 41 -16 27 -14 51 -30 54 -35 3
-5 26 -18 50 -29 51 -23 59 -15 -77 -64 -104 -38 -153 -41 -278 -22 -117 18
-170 37 -185 65 -16 29 0 37 170 82 41 10 98 25 125 33 70 19 84 18 53 -3z
m2794 -89 c77 -52 91 -78 59 -105 -51 -40 -146 -34 -193 12 -35 35 -36 66 -3
111 14 19 24 42 21 52 -4 15 -1 15 22 -3 15 -12 57 -41 94 -67z m-1437 -42
c13 -51 -56 -101 -140 -101 -64 0 -105 23 -105 58 0 24 11 36 69 76 38 26 75
53 81 61 10 12 18 7 50 -28 22 -23 42 -53 45 -66z m2201 38 c27 -11 63 -26 79
-33 17 -8 64 -25 105 -40 95 -34 169 -75 187 -103 13 -20 12 -23 -12 -39 -38
-25 -224 -31 -320 -11 -60 13 -187 66 -263 111 -30 17 -41 31 -20 23 12 -4 15
-2 12 7 -13 34 86 86 161 86 8 0 15 5 15 10 0 13 0 13 56 -11z m-1489 -5 c26
-8 56 -25 66 -36 20 -24 15 -37 -8 -18 -16 13 -18 9 -15 -27 1 -20 -2 -21 -37
-17 -21 3 -62 12 -91 20 -51 14 -54 16 -47 42 12 53 50 63 132 36z m-1661 -19
c-33 -18 -36 -18 -36 -6 0 9 21 18 50 20 8 0 2 -6 -14 -14z m55 -34 c70 -5 80
-9 112 -40 l35 -35 -21 -16 c-97 -76 -303 -118 -439 -90 -79 16 -98 26 -98 50
0 16 47 60 65 60 4 0 21 7 38 15 82 37 194 74 212 68 11 -3 54 -8 96 -12z
m994 -12 c-4 -12 -3 -19 1 -17 12 6 44 -28 36 -38 -4 -4 3 -5 15 -2 32 8 41
-27 16 -61 -34 -45 -64 -57 -112 -43 -68 21 -70 42 -9 116 29 35 54 65 56 65
2 1 0 -9 -3 -20z m1139 -41 c25 -29 46 -56 46 -60 0 -5 -9 -17 -20 -28 -42
-42 -159 -15 -144 33 11 34 50 88 58 80 4 -4 4 0 0 10 -12 33 15 17 60 -35z
m-1820 -12 c-19 -15 -19 -15 1 -14 28 2 115 -25 115 -35 0 -5 7 -15 15 -23 8
-9 15 -21 15 -29 0 -21 -58 -65 -130 -99 -57 -27 -77 -31 -170 -34 -92 -3
-109 -1 -138 18 -21 13 -32 27 -30 38 2 10 49 41 118 78 63 33 133 72 155 86
43 29 84 40 49 14z m2525 -41 c218 -103 226 -108 226 -135 0 -39 -74 -61 -195
-57 -86 3 -102 6 -173 41 -56 27 -81 44 -88 63 -6 17 -6 28 0 32 5 4 13 18 16
34 4 15 10 25 14 22 4 -2 32 3 62 12 44 13 50 17 34 24 -12 4 -14 8 -6 8 8 1
58 -19 110 -44z m-885 -41 c24 -23 19 -42 -15 -59 -56 -29 -77 -2 -36 47 26
32 30 33 51 12z m-1373 -22 c-9 -17 -8 -22 9 -27 11 -3 24 -4 29 -1 5 3 16 -5
25 -19 9 -14 13 -25 9 -25 -4 0 3 -7 15 -16 12 -8 27 -12 32 -9 6 3 10 2 10
-2 0 -19 -104 -99 -148 -115 -63 -22 -148 -22 -192 0 -56 27 -50 43 42 105 46
31 103 74 128 96 48 42 58 45 41 13z m569 13 c7 -8 17 -15 23 -15 10 0 36 -30
37 -42 0 -12 -89 -9 -111 2 -16 9 -17 14 -8 33 20 38 40 45 59 22z m1367 -36
c32 -28 91 -71 130 -97 76 -47 84 -60 57 -86 -14 -15 -26 -19 -89 -31 -22 -4
-84 12 -146 39 -50 21 -105 74 -91 88 6 6 8 18 5 27 -4 9 -3 13 1 9 8 -7 65
49 67 66 1 6 1 17 0 24 -3 19 4 15 66 -39z m-927 21 c28 -28 31 -50 28 -190
l-3 -125 -40 0 -40 0 -3 154 c-3 179 8 211 58 161z m99 -218 c1 -65 -3 -111
-8 -108 -5 3 -9 72 -9 153 0 106 2 137 8 108 5 -22 9 -91 9 -153z m679 30 c28
-24 52 -50 52 -57 0 -16 -51 -35 -94 -35 -73 0 -196 84 -196 135 0 24 47 89
53 73 2 -7 8 0 12 16 l8 30 56 -60 c31 -32 80 -79 109 -102z m-1546 102 c-4
-23 -2 -25 20 -23 30 4 74 -17 83 -39 7 -20 -42 -81 -85 -106 -66 -39 -190
-39 -190 0 0 10 146 171 176 193 1 1 -1 -11 -4 -25z m289 -49 c19 -2 37 -4 42
-4 18 -2 4 -42 -25 -72 -56 -55 -148 -85 -187 -60 -19 12 -14 20 53 101 51 61
60 68 70 54 7 -9 28 -18 47 -19z m864 -1 c25 -10 40 -12 44 -5 6 9 96 -94 107
-123 9 -24 -25 -48 -60 -41 -71 15 -186 90 -186 121 0 12 45 64 55 64 2 0 20
-7 40 -16z m-205 -248 c190 -48 334 -111 387 -168 18 -19 20 -29 14 -58 -6
-29 -11 -35 -32 -33 -13 1 -48 -3 -77 -8 -40 -8 -57 -8 -68 2 -11 9 -27 9 -72
0 -31 -7 -61 -12 -67 -11 -5 1 -12 1 -15 0 -3 -1 -49 -4 -103 -6 -91 -3 -98
-2 -85 13 12 15 10 16 -17 9 -16 -4 -32 -11 -35 -14 -3 -4 -10 -8 -15 -9 -6
-1 -23 -5 -39 -9 -25 -6 -28 -4 -23 10 5 12 0 16 -21 16 -15 0 -54 7 -87 15
-53 14 -62 14 -92 0 -18 -9 -33 -20 -33 -25 0 -17 -30 -11 -61 12 -24 18 -29
27 -24 49 6 24 3 28 -25 34 -17 4 -34 4 -37 1 -4 -3 1 -33 11 -67 9 -33 14
-64 11 -70 -4 -5 1 -9 9 -9 20 0 21 -16 1 -24 -8 -3 -15 -1 -15 4 0 6 -9 10
-20 10 -10 0 -23 7 -27 15 -5 8 -30 25 -56 38 -41 21 -49 23 -67 10 -24 -17
-55 -13 -55 6 0 14 7 19 60 42 26 11 27 13 10 17 -11 2 -34 15 -51 27 -28 21
-33 22 -52 10 -17 -13 -21 -13 -32 -1 -30 37 -161 -95 -256 -259 -23 -39 -33
-50 -29 -33 15 73 133 224 235 303 177 136 364 192 645 194 163 1 176 -1 305
-33z m-930 -220 c0 -29 -13 -76 -21 -76 -5 0 -9 7 -9 15 0 7 -8 18 -17 24 -17
9 -16 11 1 30 22 24 46 28 46 7z m2895 -16 c7 -11 -5 -150 -30 -355 -20 -158
-53 -478 -61 -585 -8 -100 2 -117 61 -106 26 5 35 3 35 -6 0 -50 -120 -118
-207 -118 -45 0 -54 4 -77 31 -29 34 -32 69 -16 180 15 103 50 415 69 624 20
207 16 240 -31 247 -30 4 -34 24 -6 39 21 12 201 55 240 58 9 0 20 -4 23 -9z
m-4328 -27 c4 -9 1 -64 -6 -122 -12 -109 -37 -342 -71 -679 -24 -234 -19 -254
64 -222 20 7 26 6 26 -4 0 -45 -128 -126 -199 -126 -52 0 -97 22 -105 52 -10
38 -7 117 9 241 9 64 22 178 30 254 55 531 55 495 2 521 -53 26 -30 42 106 77
111 29 136 30 144 8z m1957 -8 c4 -10 -1 -15 -14 -15 -11 0 -20 7 -20 15 0 8
6 15 14 15 8 0 16 -7 20 -15z m-2736 -50 c4 -50 -12 -106 -37 -129 -18 -17
-22 -16 -78 12 -32 17 -83 33 -114 37 l-56 6 -21 -163 c-12 -90 -36 -295 -53
-455 -32 -313 -32 -318 16 -349 14 -9 25 -23 25 -30 0 -11 -29 -14 -147 -15
-82 -1 -160 -2 -176 -3 -47 -3 -53 10 -20 41 60 55 61 59 113 553 11 102 24
217 30 255 5 39 9 91 10 118 l0 47 -42 -6 c-75 -10 -134 -34 -176 -70 -44 -37
-62 -37 -62 0 0 35 30 128 50 156 l18 24 243 -2 c134 -1 282 2 329 7 139 14
144 13 148 -34z m4485 32 c18 -8 38 -22 46 -31 14 -16 32 -139 80 -542 31
-252 52 -386 66 -421 9 -21 27 -39 49 -50 44 -20 48 -49 9 -60 -16 -5 -79 -8
-140 -8 -157 0 -155 -3 -165 196 -4 83 -10 154 -13 157 -6 7 -240 10 -273 4
-26 -5 -45 -42 -89 -171 -29 -87 -25 -118 17 -134 32 -12 40 -41 14 -51 -9 -3
-81 -6 -160 -6 -164 0 -170 4 -101 62 36 30 54 59 97 155 29 65 103 228 165
363 202 441 200 436 181 466 -10 13 -29 29 -43 35 -59 22 18 43 175 47 29 1
67 -4 85 -11z m-2103 -17 c0 -5 -7 -10 -15 -10 -8 0 -15 -4 -15 -10 0 -5 -10
-10 -22 -10 -20 0 -21 1 -3 20 19 21 55 27 55 10z m-238 -37 c3 -28 -17 -73
-33 -73 -13 0 -11 74 3 88 19 19 26 14 30 -15z m48 -13 c-24 -15 -37 -11 -16
5 11 8 22 12 25 9 3 -3 -1 -9 -9 -14z m203 -39 c8 -8 1 -11 -25 -11 -20 0 -38
-5 -40 -11 -6 -17 -38 2 -38 23 0 18 5 20 46 15 25 -2 51 -10 57 -16z m585
-233 c10 -22 13 -167 12 -690 0 -609 -2 -664 -17 -675 -28 -21 -52 -15 -60 15
-10 35 -10 1318 0 1355 10 37 46 34 65 -5z m2821 -10 c55 -27 53 -9 23 -263
-31 -268 -34 -318 -22 -349 10 -27 12 -28 60 -22 28 4 50 3 50 -1 0 -4 -10
-22 -22 -40 -45 -64 -172 -110 -228 -81 -45 24 -62 73 -54 162 7 91 1 93 -48
8 -68 -119 -149 -182 -233 -182 -93 0 -139 38 -169 142 -20 72 -20 102 3 216
28 134 77 226 162 307 77 72 122 99 207 120 82 21 211 13 271 -17z m670 3 c70
-36 97 -107 75 -195 -24 -92 -122 -165 -286 -215 l-93 -27 3 -55 c7 -103 71
-169 150 -154 57 10 116 39 159 79 73 65 95 40 43 -50 -68 -120 -216 -183
-362 -156 -131 24 -199 116 -206 277 -11 252 144 484 345 514 72 11 127 6 172
-18z m-6130 -20 c56 -29 75 -64 76 -136 0 -73 -33 -137 -92 -178 -52 -36 -146
-78 -218 -97 l-60 -17 -3 -46 c-6 -94 53 -167 135 -167 37 0 139 50 182 89 38
34 49 38 57 17 13 -35 -63 -141 -129 -179 -98 -57 -209 -71 -300 -37 -63 24
-108 67 -139 135 -29 65 -31 218 -4 310 25 82 85 183 141 234 101 93 251 124
354 72z m1003 -2 c21 -11 48 -34 58 -52 24 -38 26 -110 6 -158 -34 -81 -154
-159 -297 -194 l-69 -17 1 -42 c0 -63 29 -127 69 -154 28 -19 43 -23 78 -18
52 7 156 60 182 93 20 26 50 31 50 8 0 -28 -40 -95 -81 -136 -49 -49 -101 -73
-191 -90 -59 -11 -76 -10 -130 5 -84 23 -121 53 -159 131 -28 57 -32 76 -32
148 -1 148 47 276 140 377 109 119 259 158 375 99z m1763 -122 c9 -130 2
-1109 -9 -1125 -28 -44 -31 17 -35 614 -2 332 0 612 4 622 14 36 33 -18 40
-111z m-346 -737 c0 -311 -3 -571 -8 -579 -21 -32 -30 68 -37 374 -3 181 -1
464 5 650 21 622 38 430 40 -445z m-499 575 c0 -8 -4 -15 -9 -15 -5 0 -14 7
-21 15 -10 13 -9 15 9 15 12 0 21 -6 21 -15z m60 -110 c0 -8 -2 -15 -4 -15 -2
0 -6 7 -10 15 -3 8 -1 15 4 15 6 0 10 -7 10 -15z m110 -98 c28 -15 38 -37 15
-37 -22 0 -68 47 -59 61 5 8 9 8 14 -1 4 -6 18 -17 30 -23z m776 -102 c4 -8
10 -12 15 -9 6 3 15 1 22 -4 7 -5 27 -14 45 -20 56 -19 194 -117 270 -192 48
-49 82 -92 102 -135 39 -81 38 -93 -2 -30 -33 54 -79 112 -84 108 -2 -2 -10
-3 -16 -3 -9 0 -8 4 2 10 8 5 12 10 8 10 -5 0 -10 0 -13 0 -2 0 -19 14 -37 30
-36 33 -53 39 -44 14 3 -9 6 -19 6 -24 0 -5 9 -12 20 -15 14 -4 20 -15 20 -36
0 -32 -14 -38 -29 -12 -17 32 -24 5 -7 -31 9 -19 16 -39 16 -45 0 -6 4 -11 10
-11 5 0 7 13 4 30 -6 30 8 42 21 19 5 -6 12 -4 20 8 7 10 11 21 9 25 -3 5 0 8
6 8 14 0 50 -60 50 -83 0 -10 -4 -16 -9 -12 -5 3 -16 -2 -24 -10 -9 -8 -20
-15 -26 -15 -6 0 -11 -2 -11 -4 0 -2 -3 -11 -6 -19 -3 -9 2 -16 14 -19 19 -5
25 -23 37 -122 5 -36 2 -42 -43 -85 -26 -25 -61 -57 -78 -71 -16 -14 -33 -33
-37 -43 -4 -11 -16 -21 -27 -24 -12 -3 -20 -13 -19 -22 3 -32 -2 -39 -31 -44
-29 -6 -43 -27 -17 -27 7 0 18 -9 25 -20 11 -19 10 -20 -25 -20 -34 0 -73 -22
-73 -42 0 -5 14 -7 30 -3 47 10 36 -13 -12 -26 -24 -6 -49 -13 -55 -15 -7 -2
-13 -14 -13 -27 0 -17 -9 -27 -32 -38 -18 -8 -43 -30 -56 -49 -31 -46 -115
-83 -92 -41 10 20 -4 41 -17 27 -3 -3 -12 -1 -19 5 -17 14 -29 -7 -29 -51 0
-33 -2 -35 -35 -38 -19 -2 -41 -8 -48 -14 -19 -17 -55 20 -47 49 3 13 3 23 0
23 -14 0 -81 -32 -97 -47 -10 -9 -19 -13 -19 -10 -1 4 -2 12 -3 19 -2 18 -57
29 -93 17 -27 -9 -35 -7 -52 10 -12 12 -21 29 -21 38 0 12 -9 5 -25 -19 -14
-20 -25 -42 -25 -48 0 -6 -5 -8 -10 -5 -6 4 -8 11 -5 16 11 16 -5 31 -20 19
-11 -9 -12 -7 -9 7 3 10 36 41 74 68 74 53 95 80 33 42 -21 -12 -45 -27 -54
-32 -9 -6 -53 -38 -97 -72 -98 -76 -178 -166 -194 -215 -13 -43 -50 -86 -44
-51 8 39 48 112 94 169 52 65 128 130 242 207 41 28 91 63 110 78 35 27 124
77 374 210 71 37 138 77 150 88 12 12 26 21 30 21 4 0 36 21 71 46 68 48 145
135 145 163 0 22 29 63 40 56 11 -7 29 26 23 43 -8 20 -29 14 -43 -13 -22 -41
-32 -29 -25 30 7 55 7 56 -31 94 -68 66 -126 161 -63 102 20 -19 24 -19 39 -6
24 22 31 18 18 -10 -6 -14 -15 -25 -20 -25 -17 0 -7 -18 15 -25 38 -13 42 -11
39 24 -5 44 17 38 33 -9 13 -38 31 -25 21 15 -6 22 -54 55 -82 55 -7 0 -18 9
-24 21 -15 27 -118 92 -136 85 -8 -3 -14 -1 -14 3 0 5 -3 16 -6 25 -3 9 -1 16
5 16 7 0 14 -7 17 -15z m4098 -285 c32 -5 66 -16 75 -23 9 -8 33 -21 54 -28
23 -8 36 -18 33 -26 -6 -15 40 -53 74 -59 23 -5 25 -10 27 -57 2 -75 6 -97 22
-106 10 -7 2 -12 -30 -21 -24 -7 -51 -16 -59 -21 -8 -5 -39 -21 -69 -35 -37
-19 -49 -29 -40 -35 19 -11 -22 -25 -101 -33 -95 -10 -130 -17 -130 -27 0 -5
-10 -14 -22 -19 -31 -13 -55 -30 -92 -62 -17 -16 -34 -28 -38 -28 -10 0 -11
-44 -1 -53 3 -4 15 0 25 10 16 15 20 15 36 0 14 -13 32 -14 116 -7 54 5 105 6
112 3 8 -3 14 0 14 6 0 15 86 52 105 45 11 -5 18 0 22 14 7 30 35 36 109 22
68 -13 84 -27 84 -74 0 -14 5 -26 10 -26 6 0 10 -9 10 -19 0 -17 8 -20 53 -23
46 -3 52 -6 55 -26 3 -18 8 -21 24 -16 14 4 18 3 13 -6 -5 -8 1 -11 21 -8 16
1 32 10 36 18 5 12 7 12 7 -2 1 -11 6 -15 15 -12 8 3 17 0 22 -7 4 -7 2 -15
-4 -17 -17 -5 -15 -42 2 -42 12 0 14 14 11 68 -3 56 -2 61 5 27 5 -22 9 -55 9
-73 1 -19 5 -31 11 -27 6 4 10 -6 10 -24 0 -16 7 -64 15 -107 34 -180 50 -403
50 -734 0 -179 -4 -351 -8 -383 l-9 -59 -31 5 c-18 3 -56 12 -86 21 -35 10
-68 13 -95 9 -23 -4 -45 -6 -50 -5 -5 2 -61 10 -125 19 -198 28 -329 19 -422
-29 -54 -27 -58 -28 -128 -18 -72 10 -125 5 -116 -10 3 -5 1 -11 -5 -15 -5 -3
-10 -2 -10 4 0 5 -31 -8 -70 -29 l-69 -38 -67 15 c-46 10 -69 12 -76 5 -8 -8
-5 -9 9 -6 12 3 24 1 27 -5 4 -6 17 -11 29 -11 17 0 19 -2 8 -9 -9 -6 -22 -6
-35 1 -16 9 -23 6 -40 -18 -12 -16 -21 -33 -21 -39 -1 -15 18 -25 30 -17 6 4
2 -1 -8 -10 -10 -10 -38 -23 -60 -29 -23 -6 -46 -13 -51 -16 -15 -10 18 -22
43 -16 16 4 22 2 17 -5 -3 -6 -27 -14 -53 -18 -25 -4 -54 -15 -63 -24 -10 -10
-26 -23 -36 -29 -18 -10 -18 -10 3 -11 12 0 29 7 37 16 13 13 16 13 16 1 0
-10 17 -16 53 -21 74 -8 99 -8 92 4 -4 6 7 10 27 9 18 0 27 -3 21 -6 -23 -9
-14 -33 12 -33 14 0 25 6 25 13 0 6 17 17 37 24 33 10 39 9 51 -8 9 -13 18
-17 30 -11 24 12 82 14 82 3 0 -5 -6 -11 -12 -14 -7 -3 6 -8 30 -12 23 -4 45
-12 48 -16 3 -5 14 -9 25 -9 24 0 45 -19 58 -52 10 -23 10 -22 10 5 1 15 6 27
11 27 6 0 8 -10 4 -24 -3 -13 -1 -27 5 -30 7 -4 11 1 11 13 0 14 5 19 15 15 9
-4 15 0 15 7 0 12 2 12 9 1 4 -8 11 -13 15 -13 3 1 6 -2 6 -6 -1 -5 -9 -7 -20
-5 -11 2 -21 -5 -25 -18 -4 -12 -15 -20 -28 -20 -12 0 -37 -9 -55 -20 -18 -11
-43 -20 -56 -20 -24 0 -28 -13 -13 -36 9 -15 -11 -31 -43 -36 -17 -2 -25 -9
-25 -23 0 -11 -7 -20 -15 -20 -8 0 -16 -9 -18 -21 -2 -17 -8 -20 -30 -16 -28
5 -91 47 -105 70 -5 7 -17 10 -28 7 -12 -4 -34 2 -53 13 -45 26 -90 22 -152
-16 -27 -16 -60 -33 -74 -37 -14 -4 -37 -19 -52 -33 -23 -21 -30 -23 -43 -12
-13 11 -21 10 -50 -6 -18 -10 -36 -28 -39 -40 -5 -20 -10 -22 -37 -14 -32 9
-45 20 -96 73 -21 22 -35 27 -72 27 -26 0 -56 7 -69 16 -22 15 -26 14 -79 -18
-30 -18 -63 -44 -72 -58 -23 -36 -43 -50 -64 -44 -11 3 -24 -1 -30 -10 -10
-12 -20 -14 -50 -7 -50 12 -87 47 -87 82 0 15 -4 31 -10 34 -5 3 -10 0 -10 -8
0 -8 -7 -20 -15 -27 -12 -10 -15 -9 -15 7 0 14 -11 24 -40 33 -22 7 -40 19
-40 27 0 7 -11 13 -25 13 -15 0 -25 6 -25 14 0 8 -4 17 -9 21 -19 11 -150 15
-156 4 -4 -5 -15 -7 -24 -4 -34 10 -191 -76 -266 -146 -27 -25 -40 -30 -105
-33 -59 -3 -91 -12 -152 -40 -42 -20 -80 -41 -83 -46 -9 -14 -25 -3 -36 27 -7
19 -14 23 -27 17 -9 -4 -29 -8 -45 -8 -19 -1 -33 -10 -47 -33 -18 -30 -47 -53
-67 -53 -5 0 -7 16 -5 35 4 31 1 35 -18 35 -12 0 -50 13 -85 30 -60 28 -64 29
-93 14 -18 -8 -34 -19 -37 -25 -10 -16 -27 -10 -21 8 9 23 -30 61 -73 73 -46
12 -136 15 -183 5 -46 -9 -78 1 -78 25 0 23 -36 50 -67 50 -13 0 -23 4 -23 9
0 5 -19 17 -43 26 -32 12 -50 14 -69 6 -17 -6 -29 -6 -36 1 -6 6 -17 2 -31
-13 -24 -26 -28 -14 -5 19 14 20 14 22 -3 22 -11 0 -24 5 -31 12 -9 9 -12 8
-12 -7 0 -17 -2 -18 -15 -4 -14 14 -11 25 27 105 42 88 42 90 42 199 0 162
-44 299 -144 455 l-32 50 49 67 c67 94 115 204 133 311 15 86 -1 191 -66 420
-5 16 -1 28 14 40 71 60 107 87 115 84 5 -1 6 2 2 8 -3 5 -2 10 4 10 5 0 12 8
15 18 3 9 19 32 35 49 16 18 31 38 33 44 3 8 9 9 17 5 11 -7 11 -10 0 -18 -11
-8 -11 -9 1 -5 10 3 15 16 14 43 l-2 39 10 -32 c6 -18 15 -33 19 -33 12 0 11
17 -2 43 -9 21 -9 21 5 4 11 -15 19 -16 33 -8 16 9 16 10 1 11 -9 0 -19 4 -22
9 -4 5 3 7 14 4 16 -4 19 -2 13 12 -4 13 -3 16 6 11 7 -5 19 1 30 13 10 12 23
21 29 21 6 0 19 11 30 25 14 17 22 21 25 13 3 -8 6 -6 6 5 1 9 8 17 16 17 40
0 92 49 53 50 -7 1 3 9 22 18 19 9 39 27 45 40 12 27 36 28 60 2 27 -30 65
-27 245 17 14 4 36 7 50 9 14 1 62 7 108 13 86 12 114 5 148 -36 9 -10 45 -14
135 -15 68 -1 135 -5 148 -10 14 -5 49 -9 79 -9 45 -1 55 -4 59 -20 5 -19 33
-27 33 -9 0 5 18 13 40 16 22 4 40 10 40 14 0 11 63 10 76 -1 8 -7 14 -7 18 0
4 6 13 8 21 4 9 -3 22 0 30 7 14 11 19 7 16 -12 0 -5 6 -8 15 -8 8 0 13 4 9 9
-3 5 -1 12 5 16 5 3 10 2 10 -4 0 -6 6 -8 13 -5 7 2 24 -4 36 -15 28 -24 38
-20 57 25 12 28 28 41 89 69 68 33 79 35 108 24 27 -9 42 -8 96 10 102 33 139
29 203 -22 29 -24 59 -42 66 -40 6 3 12 -2 12 -11 0 -20 1 -20 49 5 22 11 48
18 58 15 45 -13 83 -16 83 -5 0 8 13 9 40 5 22 -3 40 -2 40 2 0 5 23 23 50 41
47 30 55 32 121 29 66 -3 70 -2 64 17 -19 63 -17 81 10 113 17 20 36 32 51 32
16 0 36 13 56 36 52 59 119 80 168 54 17 -9 23 -4 44 29 42 66 71 83 143 80
56 -2 67 1 91 23 54 50 65 53 156 38z m-3930 -121 c-3 -5 -10 -7 -15 -3 -5 3
-7 10 -3 15 3 5 10 7 15 3 5 -3 7 -10 3 -15z m333 -91 c-3 -8 -6 -5 -6 6 -1
11 2 17 5 13 3 -3 4 -12 1 -19z m-5225 -210 c26 -8 62 -27 79 -43 40 -38 70
-103 62 -135 -5 -19 -3 -22 11 -17 49 19 68 19 89 -1 12 -11 41 -23 65 -27 24
-4 48 -15 56 -26 17 -24 33 -21 62 11 12 14 26 22 30 17 4 -4 2 -13 -4 -19 -7
-7 -12 -17 -12 -22 0 -6 7 -3 14 7 8 10 38 22 72 29 33 6 66 13 74 16 26 8
103 1 124 -13 12 -7 36 -15 55 -19 29 -5 32 -4 21 9 -10 12 -9 15 6 15 11 0
26 -4 34 -9 18 -12 36 -1 19 11 -10 6 0 8 29 5 46 -6 66 -17 45 -24 -20 -7
-15 -23 7 -23 13 0 20 7 20 20 0 30 36 45 64 26 17 -10 33 -12 59 -6 20 4 37
4 39 0 4 -10 158 -19 158 -8 0 4 12 8 26 8 18 0 24 -4 21 -13 -3 -8 -1 -20 4
-28 6 -10 9 -7 9 13 0 49 84 67 126 27 l23 -21 23 26 c16 18 34 26 61 28 20 1
37 6 37 10 0 4 7 8 16 8 8 0 12 -4 9 -10 -3 -5 4 -11 17 -12 33 -2 39 -1 73 7
23 5 26 4 15 -4 -13 -9 -12 -11 5 -11 11 0 31 -9 45 -20 14 -11 31 -20 39 -20
8 0 25 -10 38 -22 18 -17 26 -19 32 -10 4 7 12 12 17 11 21 -4 35 2 29 11 -4
6 6 10 24 10 18 0 34 7 41 18 10 16 10 16 20 0 12 -19 30 -24 30 -8 0 17 34
50 50 50 9 0 21 5 27 11 7 7 28 9 55 5 58 -8 66 -8 119 0 39 5 60 1 136 -30
50 -20 106 -39 124 -42 32 -6 33 -6 14 9 -20 16 -20 16 3 10 12 -3 22 -9 22
-14 0 -5 10 -9 23 -8 12 0 17 3 10 5 -7 3 -9 12 -6 20 5 13 7 13 17 0 17 -22
72 -30 79 -12 4 11 17 14 46 11 26 -2 44 1 52 11 15 18 38 18 45 0 4 -9 26
-13 75 -14 58 0 74 3 87 19 20 23 40 24 64 3 16 -16 18 -16 24 0 6 15 8 14 24
-4 23 -27 70 -27 70 0 0 15 7 20 25 20 14 0 25 -4 25 -10 0 -5 3 -9 8 -8 21 6
82 -15 82 -27 0 -11 12 -15 39 -15 22 0 41 4 43 8 2 5 26 12 55 15 38 4 55 2
63 -9 7 -8 27 -14 46 -14 23 0 46 -11 78 -37 24 -21 45 -43 45 -49 1 -7 11
-15 24 -19 18 -6 19 -8 5 -12 -16 -4 -16 -7 -3 -27 9 -13 13 -30 10 -38 -4 -9
2 -18 15 -24 19 -9 18 -11 -20 -53 -22 -24 -40 -47 -40 -50 0 -4 -9 -17 -21
-29 -35 -39 -86 -146 -110 -233 -44 -156 -31 -326 36 -505 60 -159 184 -291
383 -408 l82 -48 0 -114 c0 -63 -1 -114 -2 -114 -2 0 -52 9 -113 21 -130 24
-191 31 -181 22 4 -4 28 -10 54 -15 42 -6 40 -7 -18 -4 -36 2 -74 -1 -85 -5
-14 -6 -10 -7 13 -3 35 6 45 -10 12 -21 -22 -7 -26 -20 -10 -30 26 -16 -10
-43 -64 -48 -22 -2 -58 -45 -50 -59 3 -4 0 -8 -5 -8 -6 0 -11 7 -11 15 0 15
-24 16 -47 2 -7 -5 -21 1 -33 13 -11 11 -28 20 -38 20 -21 0 -56 33 -45 43 3
4 -1 7 -10 7 -9 0 -17 6 -17 14 0 9 -7 12 -22 9 -17 -3 -19 -2 -9 5 9 7 10 12
2 16 -18 11 -13 26 9 26 11 0 20 7 20 15 0 9 -9 15 -24 15 -14 0 -27 4 -30 8
-3 5 -27 8 -53 7 -26 -1 -57 1 -67 5 -18 6 -17 8 7 14 15 3 27 11 27 17 0 12
-19 9 -77 -9 -26 -8 -31 -8 -26 4 3 8 10 14 17 14 6 0 4 5 -4 10 -15 10 -193
12 -242 3 -15 -3 -25 -9 -23 -14 9 -13 -67 -59 -98 -59 -54 0 -62 101 -9 125
27 12 29 25 2 25 -11 0 -20 6 -20 14 0 8 -7 17 -16 20 -9 4 -14 13 -10 21 3 8
1 15 -5 15 -6 0 -8 9 -4 20 7 23 -22 41 -35 20 -6 -10 -10 -9 -16 3 -9 15
-174 88 -226 101 -16 3 -28 11 -28 16 0 6 -9 5 -20 -2 -15 -10 -24 -10 -39 -1
-10 6 -28 9 -39 6 -17 -4 -20 -1 -15 16 5 21 -11 29 -22 11 -9 -15 -25 -12
-25 5 0 8 5 15 10 15 6 0 10 9 10 20 0 11 5 20 10 20 6 0 10 7 10 15 0 8 -9
15 -20 15 -24 0 -27 18 -4 27 14 5 12 8 -7 19 -13 7 -24 21 -24 31 0 10 -13
25 -30 33 -16 8 -30 22 -30 30 0 11 -11 15 -43 15 -33 0 -46 5 -54 20 -15 26
-28 34 -45 28 -8 -3 -39 2 -69 12 -66 20 -95 12 -118 -33 -16 -31 -48 -50 -54
-33 -5 14 -42 14 -42 0 0 -6 -11 -8 -28 -4 -23 5 -31 1 -42 -19 -11 -22 -11
-29 4 -51 14 -21 15 -29 5 -41 -7 -9 -21 -13 -30 -11 -10 3 -23 -1 -30 -9 -6
-8 -29 -14 -51 -14 -22 0 -40 -5 -43 -12 -2 -7 -6 -56 -9 -108 -3 -52 -5 -96
-6 -97 0 -2 -10 -2 -23 0 -18 2 -23 -4 -25 -30 -4 -45 -22 -41 -23 5 0 20 -1
80 -2 132 -2 87 -4 95 -21 92 -29 -5 -46 -27 -46 -60 0 -40 9 -62 26 -62 18 0
18 -12 -1 -55 -9 -24 -12 -52 -8 -85 5 -46 4 -50 -16 -50 -11 0 -21 5 -21 10
0 6 -5 10 -11 10 -5 0 -7 -4 -4 -10 3 -5 -1 -10 -9 -10 -9 0 -16 4 -16 10 0 5
-11 12 -24 16 -13 3 -27 15 -30 27 -8 30 -7 449 0 515 l7 52 98 0 c128 0 130
4 48 140 -99 165 -133 295 -119 459 3 37 -13 46 -60 32 -32 -9 -40 -17 -40
-35 0 -13 9 -31 20 -41 25 -23 25 -56 -1 -158 -27 -109 -60 -200 -104 -286
-19 -39 -35 -75 -35 -81 0 -6 11 -15 25 -20 22 -8 25 -15 25 -58 l0 -49 -49
-7 c-33 -4 -64 -2 -92 8 -23 8 -46 13 -50 10 -4 -2 -11 0 -14 6 -4 6 -15 8
-26 5 -11 -4 -19 -2 -19 4 0 6 -12 11 -26 11 -27 0 -28 7 -10 50 4 10 -4 21
-24 33 -16 10 -30 15 -30 12 0 -3 -6 -3 -12 2 -7 4 -21 6 -30 5 -10 -2 -18 3
-18 10 -1 8 -5 7 -14 -5 -10 -12 -16 -15 -21 -7 -4 6 2 22 14 34 26 28 27 62
1 76 -11 6 -17 16 -14 25 9 22 -46 66 -68 54 -14 -8 -24 -2 -48 24 -25 29 -61
47 -105 51 -5 1 -15 4 -20 8 -6 3 -32 2 -59 -3 -53 -10 -116 -51 -124 -81 -3
-12 -10 -17 -20 -13 -8 3 -23 -2 -34 -12 -18 -16 -18 -16 -12 0 7 19 -13 50
-27 42 -4 -3 -12 2 -17 11 -6 10 -16 15 -26 11 -10 -4 -16 -1 -16 9 0 8 -6 17
-14 20 -23 9 -28 35 -11 61 19 29 13 43 -18 37 -16 -3 -15 -1 6 7 35 14 34 27
-3 40 -16 6 -30 18 -30 26 0 11 -7 14 -25 9 -14 -4 -25 -2 -25 4 0 5 7 10 16
10 9 0 14 7 12 18 -3 11 -12 16 -26 15 -13 -2 -26 5 -33 18 -6 12 -17 18 -25
15 -10 -4 -14 0 -12 12 2 11 -4 18 -18 20 -12 2 -24 13 -28 25 -3 11 -8 18
-12 14 -4 -4 -12 0 -19 9 -21 29 -124 25 -155 -6 -10 -10 -35 -4 -42 10 -5 12
-7 12 -7 -2 -1 -19 -21 -26 -21 -8 0 6 -22 10 -49 10 -28 0 -53 4 -56 10 -4 6
1 7 12 3 16 -6 16 -5 5 10 -18 21 -29 267 -13 267 16 0 51 60 51 87 0 31 73
119 107 127 81 21 160 34 178 31 11 -2 41 -10 67 -17z m5098 -41 c0 -2 -9 -12
-20 -22 -24 -21 -27 -14 -4 9 15 15 24 20 24 13z m1263 -54 c-7 -2 -21 -2 -30
0 -10 3 -4 5 12 5 17 0 24 -2 18 -5z m-1339 -15 c-13 -23 -38 -50 -56 -59 -28
-15 -23 17 7 46 25 26 62 35 49 13z m-2399 -78 c3 -5 2 -10 -4 -10 -5 0 -13 5
-16 10 -3 6 -2 10 4 10 5 0 13 -4 16 -10z m575 6 c0 -3 -4 -8 -10 -11 -5 -3
-10 -1 -10 4 0 6 5 11 10 11 6 0 10 -2 10 -4z m-1706 -21 c-4 -8 -11 -15 -16
-15 -6 0 -5 6 2 15 7 8 14 15 16 15 2 0 1 -7 -2 -15z m-1084 -36 c0 -14 -16
-11 -29 5 -10 12 -8 13 8 9 12 -3 21 -9 21 -14z m3405 -189 c3 -6 -1 -7 -9 -4
-18 7 -21 14 -7 14 6 0 13 -4 16 -10z m285 -115 c-7 -8 -20 -15 -29 -15 -12 0
-10 5 9 20 28 21 39 18 20 -5z m100 -10 c0 -16 56 -22 62 -7 2 5 14 12 28 15
28 7 76 -28 82 -59 2 -15 -2 -18 -25 -16 -16 2 -35 -2 -43 -9 -11 -9 -18 -8
-32 5 -10 9 -28 16 -40 16 -46 0 -92 36 -76 61 9 15 44 10 44 -6z m-75 -41
c-9 -14 -15 -35 -12 -45 6 -22 -3 -25 -21 -7 -9 9 -12 9 -12 -2 0 -7 -3 -10
-6 -7 -11 11 45 85 65 87 2 0 -4 -12 -14 -26z m65 -133 c0 -5 -9 -7 -20 -4
-11 3 -20 7 -20 9 0 2 9 4 20 4 11 0 20 -4 20 -9z m-2823 -163 c-3 -7 -5 -2
-5 12 0 14 2 19 5 13 2 -7 2 -19 0 -25z m3242 -13 c11 -36 13 -137 9 -480 -2
-239 -7 -437 -11 -441 -4 -4 -10 -4 -14 0 -11 10 -16 966 -5 966 4 0 14 -20
21 -45z m287 20 c-8 -8 -17 -15 -20 -15 -3 0 -3 7 0 15 4 8 13 15 21 15 12 0
12 -2 -1 -15z m-3529 -57 c-3 -8 -6 -5 -6 6 -1 11 2 17 5 13 3 -3 4 -12 1 -19z
m113 -108 c0 -4 10 -20 21 -34 l22 -28 -29 4 c-25 3 -32 11 -50 58 -12 30 -25
68 -28 85 -6 24 -1 20 28 -24 20 -29 36 -56 36 -61z m3015 63 c13 -32 19 -939
6 -947 -6 -4 -11 -18 -11 -31 0 -26 -28 -41 -44 -25 -12 12 -22 899 -11 957 6
32 28 63 45 63 4 0 11 -8 15 -17z m-206 -645 c1 -461 -4 -550 -26 -471 -11 38
-10 953 1 978 l8 20 8 -20 c5 -11 9 -239 9 -507z m561 80 c46 -58 65 -92 86
-152 16 -47 8 -39 -46 50 -19 32 -50 79 -68 106 -43 64 -23 62 28 -4z m-14
-75 c-4 -4 -11 -1 -16 7 -16 25 -11 35 7 17 9 -9 13 -20 9 -24z m-3811 -3 c9
-15 417 -319 526 -392 75 -51 95 -69 97 -91 2 -19 -1 -27 -12 -27 -8 0 -17 4
-21 9 -4 8 -158 119 -449 325 -22 17 -65 49 -94 72 -29 24 -61 46 -72 49 -14
4 -111 -40 -322 -146 -167 -83 -321 -158 -343 -167 -43 -16 -573 -63 -581 -51
-2 3 18 9 44 13 88 11 317 37 377 42 72 6 103 20 503 221 166 84 311 153 322
153 10 0 22 -5 25 -10z m3839 -76 c22 5 27 2 32 -20 5 -18 1 -33 -15 -52 -12
-15 -29 -40 -39 -56 -9 -16 -29 -44 -44 -61 -16 -18 -28 -42 -28 -53 0 -11 -7
-25 -15 -32 -23 -19 -18 -28 25 -41 39 -12 54 -29 26 -29 -23 0 -76 22 -76 31
0 5 -8 9 -17 9 -24 -1 -56 -47 -56 -81 0 -27 -20 -45 -38 -33 -5 3 -9 12 -9
20 0 8 -5 14 -11 14 -7 0 -9 -10 -6 -25 7 -38 -28 -54 -45 -21 l-13 24 -40
-20 c-22 -11 -57 -29 -77 -39 -20 -10 -39 -27 -42 -37 -8 -24 -76 -90 -76 -73
0 8 -10 6 -29 -8 -15 -11 -31 -18 -35 -14 -8 8 13 33 28 33 12 0 120 98 127
115 2 6 33 29 69 52 36 24 83 59 105 79 32 28 33 31 8 13 -18 -12 -35 -20 -39
-17 -8 9 100 88 120 88 9 0 19 7 22 15 4 8 10 12 15 9 5 -3 12 3 16 13 4 10
22 33 40 52 38 40 40 47 13 56 -11 3 -20 10 -20 15 0 16 18 20 45 10 20 -8 26
-15 22 -30 -7 -28 9 -25 29 5 18 27 11 47 -13 38 -13 -5 -15 -2 -10 18 4 13 7
31 7 39 0 12 2 13 9 1 6 -9 18 -11 35 -7z m-3314 -84 c0 -5 -9 -10 -21 -10
-11 0 -17 5 -14 10 3 6 13 10 21 10 8 0 14 -4 14 -10z m3330 -50 c0 -11 -7
-23 -15 -27 -21 -8 -28 1 -20 26 8 27 35 27 35 1z m-3823 -56 l31 -6 6 -87 c4
-47 4 -111 2 -141 l-4 -55 -41 0 c-23 1 -72 2 -111 3 l-70 2 0 151 0 152 78
-6 c42 -3 91 -9 109 -13z m2140 10 c-3 -3 -12 -4 -19 -1 -8 3 -5 6 6 6 11 1
17 -2 13 -5z m762 -113 c10 -6 -1 -8 -30 -4 -24 3 -46 7 -48 9 -10 9 65 3 78
-5z m887 -18 c-10 -10 -19 5 -10 18 6 11 8 11 12 0 2 -7 1 -15 -2 -18z m-4195
-5 c-1 -5 -1 -85 -1 -179 l0 -171 -25 16 c-29 19 -100 22 -89 4 5 -8 0 -9 -17
-5 -13 4 -32 7 -41 7 -16 0 -18 14 -18 144 l0 144 74 7 c63 5 75 10 79 27 5
18 39 23 38 6z m-68 -5 c-13 -2 -35 -2 -50 0 -16 2 -5 4 22 4 28 0 40 -2 28
-4z m2721 -8 c3 -9 0 -15 -10 -15 -8 0 -13 4 -10 9 4 5 0 12 -6 14 -8 4 -7 6
3 6 9 1 19 -6 23 -14z m773 -32 c-3 -10 -5 -2 -5 17 0 19 2 27 5 18 2 -10 2
-26 0 -35z m4690 41 c-3 -3 -12 -4 -19 -1 -8 3 -5 6 6 6 11 1 17 -2 13 -5z
m301 -41 c18 -35 19 -43 7 -43 -8 0 -15 7 -15 16 0 8 -3 13 -7 11 -5 -3 -9 11
-10 30 -1 19 -1 33 1 32 1 -2 12 -23 24 -46z m28 38 c16 13 18 1 4 -21 -9 -13
-11 -13 -20 0 -5 8 -9 20 -9 25 0 6 3 4 6 -3 4 -10 8 -10 19 -1z m127 -11 c4
0 5 5 2 10 -8 13 5 13 25 0 10 -6 11 -10 3 -10 -7 0 -22 -9 -33 -20 -17 -17
-24 -18 -45 -8 -19 8 -28 8 -40 -2 -20 -16 -32 -5 -16 14 9 11 20 12 44 5 18
-5 33 -9 35 -9 2 0 0 10 -3 23 -6 18 -5 20 6 10 7 -7 17 -13 22 -13z m-443 -5
c-7 -8 -20 -15 -29 -15 -11 0 -8 5 9 14 33 19 35 19 20 1z m-4002 -32 c5 -18
-19 -16 -43 3 -19 15 -19 15 9 12 16 -2 31 -9 34 -15z m-3448 -13 c22 -11 46
-20 55 -20 25 0 31 -37 25 -159 l-5 -115 -75 2 -75 1 2 73 c4 133 15 238 24
238 6 0 27 -9 49 -20z m1334 -40 c43 -30 124 -88 180 -129 56 -40 107 -75 114
-78 6 -3 12 -14 12 -24 0 -16 -8 -14 -62 20 -35 21 -121 77 -191 124 -70 48
-134 87 -141 87 -7 0 -35 -12 -62 -26 -102 -55 -300 -152 -321 -159 -13 -3
-28 -3 -35 2 -7 4 -44 7 -83 6 l-70 -2 75 13 c63 10 109 30 284 119 115 59
212 106 215 105 3 -2 42 -28 85 -58z m2046 51 c0 -6 -4 -13 -10 -16 -5 -3 -10
1 -10 9 0 9 5 16 10 16 6 0 10 -4 10 -9z m4140 -8 c0 -7 5 -13 10 -13 6 0 10
-7 10 -15 0 -18 27 -20 33 -2 2 6 3 4 2 -5 -3 -20 41 -53 50 -37 4 5 4 17 0
26 -3 9 6 4 20 -11 14 -15 25 -29 25 -30 0 -13 -85 3 -95 17 -7 9 -21 17 -32
17 -12 0 -23 8 -26 20 -3 12 -14 20 -26 20 -12 0 -21 4 -21 9 0 5 -10 11 -22
14 -13 2 -2 3 25 4 33 0 47 -4 47 -14z m160 -43 c0 -5 -2 -10 -4 -10 -3 0 -8
5 -11 10 -3 6 -1 10 4 10 6 0 11 -4 11 -10z m-7530 -151 c0 -86 -4 -139 -10
-139 -6 0 -10 55 -10 146 0 94 4 143 10 139 6 -4 10 -63 10 -146z m3070 111
c0 -5 7 -16 16 -25 20 -20 12 -30 -13 -17 -20 11 -53 -6 -53 -27 0 -6 -7 -11
-16 -11 -9 0 -31 -16 -50 -35 l-34 -35 0 49 c0 60 18 80 57 62 24 -11 25 -10
19 11 -7 30 29 61 56 47 10 -5 18 -14 18 -19z m-4470 -119 l0 -138 -77 -6
c-43 -3 -82 -2 -86 2 -4 4 -6 66 -5 137 l3 129 40 6 c22 3 59 7 83 8 l42 1 0
-139z m4225 89 c-16 -16 -31 -27 -34 -24 -5 4 48 53 58 54 3 0 -8 -13 -24 -30z
m-45 -39 c0 -5 -7 -12 -16 -15 -14 -5 -15 -4 -4 9 14 17 20 19 20 6z m-31 -33
c-2 -2 -24 -21 -48 -43 -43 -39 -43 -39 -22 -8 22 32 47 52 65 53 5 0 7 -1 5
-2z m138 -30 c-3 -7 -5 -2 -5 12 0 14 2 19 5 13 2 -7 2 -19 0 -25z m98 2 c3
-5 1 -10 -4 -10 -6 0 -11 5 -11 10 0 6 2 10 4 10 3 0 8 -4 11 -10z m-151 -17
c3 -10 9 -24 12 -32 5 -11 2 -12 -12 -6 -11 4 -28 8 -38 9 -27 2 -33 26 -7 26
12 0 21 5 21 10 0 17 17 11 24 -7z m131 -3 c3 -5 -1 -10 -9 -10 -9 0 -16 5
-16 10 0 6 4 10 9 10 6 0 13 -4 16 -10z m-239 -16 c-23 -22 -20 -34 10 -34
l25 0 -18 -30 c-9 -16 -23 -30 -29 -30 -18 0 -27 32 -12 42 10 6 10 10 1 16
-10 6 -9 13 3 30 8 12 20 22 25 22 6 0 3 -7 -5 -16z m-1501 -14 c44 -6 84 -15
89 -20 13 -13 21 -257 8 -273 -8 -10 -30 -11 -94 -5 -46 4 -147 8 -226 8
l-143 0 6 143 c4 78 8 148 11 155 4 15 221 10 349 -8z m750 -79 c177 -76 260
-110 288 -116 15 -4 30 -11 33 -16 6 -10 -266 -11 -461 0 l-130 6 -80 48 c-77
45 -78 47 -40 42 54 -8 201 36 199 59 -2 13 8 16 50 16 37 0 75 -10 141 -39z
m-2875 -16 c113 -3 386 -7 608 -10 l403 -5 87 -36 c48 -20 128 -51 177 -69
125 -45 126 -46 122 -59 -3 -8 -142 -10 -513 -8 -638 3 -887 12 -912 36 -10 9
-21 16 -25 16 -3 0 -41 22 -85 48 -44 27 -94 54 -111 62 -46 19 -42 44 7 36
20 -3 129 -8 242 -11z m4036 -92 c7 -62 -3 -746 -13 -833 -5 -45 -8 -50 -14
-30 -9 32 -11 904 -2 913 15 16 22 4 29 -50z m-124 -93 c9 -36 3 -590 -9 -804
-9 -184 -24 -119 -34 148 -10 297 -12 656 -3 679 11 28 37 15 46 -23z m-888
-123 c3 -48 3 -94 -1 -102 -4 -11 -23 -15 -78 -15 l-73 0 -7 73 c-4 39 -5 88
-3 107 l3 35 65 5 c37 3 70 1 77 -5 7 -6 14 -47 17 -98z m-3514 -56 l0 -159
-75 -7 c-41 -4 -82 -5 -90 -1 -13 5 -15 28 -13 158 l3 153 35 6 c19 4 59 7 88
8 l52 1 0 -159z m3321 132 c0 -16 2 -63 5 -105 2 -43 -1 -89 -6 -103 -9 -24
-14 -26 -57 -23 l-48 3 -3 85 c-2 47 0 104 3 128 l6 42 50 0 c47 0 49 -1 50
-27z m259 -75 c0 -50 -2 -89 -5 -86 -8 8 -18 147 -11 163 12 32 16 11 16 -77z
m-2718 24 c5 -5 7 -65 6 -133 l-3 -124 -90 0 c-49 0 -96 2 -102 4 -10 2 -13
37 -13 131 0 94 3 130 13 133 20 7 180 -2 189 -11z m463 -124 c0 -64 -3 -119
-6 -123 -4 -3 -45 -8 -91 -12 -64 -4 -87 -3 -93 7 -4 7 -10 67 -13 132 l-4
119 104 -3 103 -3 0 -117z m370 89 c3 -12 5 -65 3 -117 l-3 -95 -90 0 -90 0 0
115 0 115 35 5 c19 3 59 3 87 2 45 -3 54 -7 58 -25z m226 -134 l1 -28 7 25 c7
24 11 25 84 27 72 1 77 0 78 -20 2 -22 2 -22 6 1 4 20 10 22 69 22 46 0 63 -3
58 -11 -4 -7 -8 -21 -9 -33 -1 -11 -3 -24 -4 -28 -2 -10 -321 -10 -321 0 0 26
14 72 21 72 5 0 9 -12 10 -27z m326 -30 c-3 -10 -5 -2 -5 17 0 19 2 27 5 18 2
-10 2 -26 0 -35z m5088 27 c176 -5 406 -10 510 -10 116 -1 182 -5 170 -10 -11
-5 -33 -9 -50 -10 -18 -2 -23 -4 -12 -7 9 -2 15 -8 12 -12 -2 -5 23 -12 58
-15 80 -9 136 -24 167 -44 14 -9 31 -17 38 -18 29 -5 20 -11 -30 -22 -29 -6
-164 -14 -299 -17 -303 -8 -386 -23 -140 -24 114 -1 172 -4 165 -11 -5 -5 -42
-10 -82 -11 -126 -3 -77 -19 57 -19 149 0 194 -6 187 -26 -4 -11 15 -14 99
-14 57 0 106 -4 109 -9 6 -9 -58 -12 -449 -27 -173 -7 -199 -20 -45 -23 46 -1
86 -4 88 -6 2 -2 -29 -7 -69 -11 -94 -9 -71 -20 71 -32 l105 -9 -95 -2 c-178
-5 -39 -19 275 -28 392 -11 251 -18 -430 -21 -565 -3 -697 -15 -280 -25 154
-4 357 -11 450 -16 94 -5 278 -13 410 -17 132 -4 231 -10 220 -14 -11 -4 -308
-10 -660 -14 -649 -7 -788 -12 -763 -27 9 -6 7 -9 -8 -9 -11 0 -23 2 -25 5 -9
8 -522 12 -549 4 -17 -5 0 -7 50 -8 365 -6 974 -22 1013 -27 26 -3 53 -12 60
-19 9 -9 76 -16 213 -24 219 -12 285 -19 297 -31 18 -16 -738 -41 -1523 -49
l-625 -6 543 -8 c405 -6 555 -12 590 -22 26 -7 108 -16 182 -20 135 -6 277
-21 315 -32 l20 -6 -20 -8 c-11 -4 -51 -8 -90 -8 -43 -1 -65 -5 -56 -10 7 -5
180 -12 385 -17 514 -12 340 -20 -609 -28 -1030 -9 -1408 -16 -1419 -26 -6 -6
154 -7 395 -4 409 5 719 -2 719 -16 0 -4 -64 -11 -142 -15 -79 -3 -172 -8
-208 -10 -116 -6 -931 -6 -940 0 -13 8 -173 -14 -183 -26 -4 -5 -5 -7 -1 -5 3
2 33 -3 67 -11 52 -13 133 -14 522 -10 523 7 1488 -6 1524 -20 15 -6 20 -12
13 -17 -6 -3 -251 -11 -543 -16 -293 -6 -535 -12 -537 -15 -3 -3 15 -5 39 -5
24 0 76 -3 114 -7 l70 -8 -55 -6 c-30 -4 -128 -7 -217 -8 -112 -1 -162 -4
-165 -13 -4 -10 -178 -17 -803 -31 -121 -3 194 -4 1448 -6 239 -1 267 -3 253
-16 -11 -11 -37 -15 -99 -15 -47 0 -87 -4 -89 -9 -3 -9 -153 -17 -515 -27
-163 -5 -241 -11 -240 -18 1 -7 -223 -11 -756 -12 -416 0 -760 -3 -763 -7 -11
-11 172 -16 864 -28 386 -6 714 -14 730 -19 22 -7 15 -8 -33 -9 -33 -1 -215
-8 -405 -16 -190 -7 -473 -17 -630 -21 -280 -6 -584 -30 -427 -33 68 -1 88
-13 42 -25 -43 -11 -248 -4 -285 10 -34 12 -32 13 50 15 l85 2 -94 8 c-52 5
-99 13 -104 18 -15 15 1 30 38 37 25 4 35 12 35 25 0 10 8 22 18 28 14 8 10
11 -24 16 -59 10 -74 22 -51 39 13 10 15 15 5 18 -8 3 -4 10 12 19 20 11 81
13 310 11 310 -3 435 10 225 22 -66 4 -192 6 -280 6 -88 -1 -182 4 -210 10
-27 6 -72 13 -100 16 -81 9 -82 10 -43 52 20 20 41 48 48 61 29 57 49 163 56
299 5 96 11 142 18 142 8 0 10 -13 8 -35 l-4 -35 53 1 c30 0 74 4 99 8 41 8
39 9 -32 10 -45 0 -78 5 -78 11 0 6 6 10 13 10 6 1 1 7 -12 14 -22 12 -21 13
24 19 64 9 320 9 311 0 -4 -4 -27 -8 -53 -9 -25 -1 -57 -5 -70 -9 -20 -5 -23
-8 -13 -20 10 -12 8 -15 -11 -16 -21 -1 -20 -2 6 -9 63 -16 430 -6 419 12 -3
4 -41 8 -84 8 -71 0 -79 2 -85 21 -10 31 9 39 97 39 87 0 120 19 36 21 -29 1
-57 1 -62 0 -5 -1 -22 1 -38 4 -38 9 -26 25 20 26 20 0 55 6 77 13 l40 13 -45
7 c-85 15 -78 25 20 28 135 3 229 -2 275 -15 l40 -11 -40 -7 c-63 -11 63 -4
160 10 44 6 116 14 160 17 75 7 77 8 40 15 -22 5 -57 6 -78 3 -20 -3 -70 0
-110 7 -100 17 -65 27 96 28 128 1 167 13 81 25 -26 3 -85 6 -131 6 -54 0 -82
4 -78 10 3 6 51 10 108 10 109 0 121 4 124 35 3 23 -59 75 -89 75 -11 0 -16 4
-13 10 3 5 -4 10 -17 10 -13 1 -243 2 -513 3 -466 2 -490 3 -493 20 -4 17 3
18 85 16 48 -2 151 1 228 5 77 5 235 10 350 12 561 5 1172 22 1203 34 34 13
43 30 15 30 -10 0 -104 5 -210 10 -168 9 -198 13 -246 35 -109 48 -104 49 369
41 241 -4 583 -11 759 -16z m-4636 -312 c-1 -87 -11 -122 -24 -85 -11 28 -11
165 -1 206 l11 43 7 -33 c4 -19 7 -78 7 -131z m488 90 c-3 -8 -6 -5 -6 6 -1
11 2 17 5 13 3 -3 4 -12 1 -19z m2288 -108 c3 -5 -3 -10 -14 -10 -28 0 -27
-14 2 -27 21 -10 20 -11 -18 -22 -32 -10 -55 -10 -115 1 l-75 14 90 15 90 14
-90 3 c-61 2 -85 6 -75 12 20 13 197 13 205 0z m-1397 -172 c-6 -16 -34 -19
-98 -11 -53 6 -54 7 -20 14 60 11 122 10 118 -3z m-488 -44 c0 -17 -26 -19
-36 -3 -7 12 15 31 28 23 4 -3 8 -12 8 -20z m489 2 c20 -24 -2 -27 -144 -20
-194 10 -162 25 71 32 43 1 65 -2 73 -12z m-499 -42 c0 -8 -4 -12 -10 -9 -5 3
-10 10 -10 16 0 5 5 9 10 9 6 0 10 -7 10 -16z m-171 -52 c7 -13 7 -22 0 -29
-16 -16 43 -27 97 -18 40 6 44 8 38 30 -4 17 -1 25 15 30 27 8 66 -15 66 -40
0 -18 8 -20 70 -23 39 -2 113 0 165 4 l95 8 -69 8 c-68 8 -84 13 -75 23 3 2
67 7 142 11 l137 7 0 -61 c0 -106 33 -235 82 -313 15 -25 28 -51 28 -57 0 -27
-49 -33 -317 -36 -173 -3 -289 -8 -307 -15 -20 -8 -51 -9 -105 -2 -42 6 -114
10 -161 11 -47 0 -103 5 -125 10 -44 10 -334 14 -359 4 -9 -3 -16 -15 -16 -25
0 -21 -26 -26 -32 -7 -3 8 -66 12 -213 14 -114 2 -215 6 -224 9 -23 7 -40 -7
-38 -30 2 -16 -5 -21 -32 -23 -39 -4 -64 13 -41 28 13 8 12 11 -3 23 -18 12
-17 14 10 27 27 13 27 14 6 18 -24 4 -30 17 -12 27 7 5 4 13 -7 26 -15 16 -15
19 -1 25 30 11 72 0 72 -20 0 -10 9 -23 20 -27 30 -11 155 -11 155 1 0 6 10
10 23 9 20 0 20 -1 3 -8 -19 -7 -19 -8 -1 -15 10 -3 45 -9 77 -13 56 -6 58 -5
59 18 1 13 1 28 -1 34 -1 5 7 15 16 22 22 16 32 15 -230 17 -150 1 -200 4
-203 14 -3 6 2 12 11 12 21 0 20 10 -1 25 -15 11 -13 13 15 20 18 3 46 3 64 0
l31 -7 -24 -19 c-24 -19 -24 -19 63 -19 77 0 120 11 86 22 -9 3 -8 9 5 22 9
10 17 23 17 29 0 8 4 7 9 -2 15 -23 81 -41 128 -34 32 4 41 9 33 18 -9 11 2
114 15 135 12 20 36 11 34 -12 -4 -33 12 -131 23 -145 6 -8 3 -15 -9 -22 -14
-8 -8 -10 30 -11 71 0 57 -24 -17 -28 l-57 -3 23 -32 c12 -18 26 -34 30 -35 5
-2 6 -8 2 -13 -7 -12 3 -11 27 2 15 8 24 7 35 -2 21 -17 464 -16 554 2 36 6
106 18 155 24 84 11 86 12 35 14 -58 1 -87 12 -77 29 8 12 -74 22 -198 22 -55
0 -107 5 -115 10 -10 7 23 10 102 10 75 0 119 4 124 11 5 8 -23 10 -96 8 -69
-3 -104 0 -107 7 -2 7 52 13 173 18 97 4 184 11 193 17 11 7 -3 9 -52 4 -65
-5 -107 4 -107 25 0 6 24 11 53 11 l52 2 -70 9 c-38 6 -90 10 -115 9 -25 0
-67 0 -94 -1 -27 0 -51 2 -54 5 -16 16 28 20 198 20 141 0 192 3 202 13 10 10
10 14 -1 21 -9 6 -10 11 -2 15 28 18 3 26 -91 28 -70 2 -103 7 -106 16 -2 6 4
12 13 12 13 0 14 4 5 20 -6 11 -8 25 -5 30 10 17 44 11 54 -8z m1098 -84 c-2
-13 -4 -5 -4 17 -1 22 1 32 4 23 2 -10 2 -28 0 -40z m-1272 32 c-3 -5 -26 -10
-51 -10 -28 0 -43 4 -39 10 3 6 26 10 51 10 28 0 43 -4 39 -10z m-10 -50 c0
-10 -11 -15 -34 -15 -39 0 -54 21 -19 28 36 7 53 3 53 -13z m228 1 c5 -5 -9
-13 -31 -18 -30 -8 -43 -7 -58 4 -16 12 -17 15 -4 24 16 10 79 3 93 -10z
m-1183 -51 c0 -5 -8 -10 -17 -10 -15 0 -16 2 -3 10 19 12 20 12 20 0z m10 -50
c0 -5 -9 -10 -20 -10 -11 0 -20 5 -20 10 0 6 9 10 20 10 11 0 20 -4 20 -10z
m940 0 c0 -5 -8 -10 -17 -10 -15 0 -16 2 -3 10 19 12 20 12 20 0z m-443 -66
c-3 -3 -12 -4 -19 -1 -8 3 -5 6 6 6 11 1 17 -2 13 -5z m-1064 -11 c-7 -2 -19
-2 -25 0 -7 3 -2 5 12 5 14 0 19 -2 13 -5z m0 -60 c-7 -2 -21 -2 -30 0 -10 3
-4 5 12 5 17 0 24 -2 18 -5z m797 -14 c0 -11 -108 -10 -135 1 -13 5 7 8 58 8
42 0 77 -4 77 -9z m-6 -139 c-14 -14 -133 -15 -146 -2 -9 9 9 12 72 12 54 0
81 -3 74 -10z m212 -5 c-25 -19 -60 -19 -76 0 -11 13 -5 15 41 15 50 -1 52 -2
35 -15z m914 -20 c19 -3 54 -8 78 -11 32 -4 42 -9 38 -20 -4 -11 10 -14 77
-14 61 1 78 3 64 11 -32 19 -7 29 71 29 59 0 85 -5 109 -20 38 -23 35 -50 -6
-51 -23 0 -24 -1 -6 -9 11 -5 36 -9 55 -9 51 -2 69 -17 30 -25 -18 -3 -47 -6
-64 -6 -17 0 -37 -4 -44 -9 -21 -13 7 -51 36 -51 21 0 46 -35 36 -51 -2 -4
-31 -9 -63 -13 -63 -7 -184 11 -175 26 3 4 -22 8 -56 8 -38 0 -59 -4 -55 -10
4 -6 -11 -10 -37 -9 -31 0 -37 3 -23 8 30 12 -30 21 -140 21 -110 0 -125 4
-125 36 0 13 -6 24 -12 25 -7 0 10 7 37 15 36 11 80 13 160 9 116 -6 334 7
357 21 9 6 1 11 -27 15 -22 4 -68 12 -103 18 -35 7 -67 9 -72 6 -10 -6 -310
-8 -317 -1 -3 2 -1 11 3 18 5 7 9 20 9 28 0 28 52 32 165 15z m-936 -11 c25
-9 19 -24 -9 -24 -16 0 -25 6 -25 15 0 16 9 19 34 9z m3659 -71 c-7 -2 -21 -2
-30 0 -10 3 -4 5 12 5 17 0 24 -2 18 -5z m-3578 -13 c3 -5 1 -10 -4 -10 -6 0
-11 5 -11 10 0 6 2 10 4 10 3 0 8 -4 11 -10z m1823 -17 c-10 -2 -26 -2 -35 0
-10 3 -2 5 17 5 19 0 27 -2 18 -5z m-1322 -51 c18 -10 17 -11 -9 -21 -18 -7
-74 -8 -177 -1 -164 10 -240 5 -240 -16 0 -11 -23 -14 -104 -14 -103 0 -133 9
-99 29 13 8 14 10 4 11 -10 0 -11 3 -5 9 12 13 87 16 370 15 148 -1 249 -6
260 -12z m261 -68 c-3 -3 -12 -4 -19 -1 -8 3 -5 6 6 6 11 1 17 -2 13 -5z
m2148 -63 c374 -4 682 -8 685 -10 14 -10 -129 -19 -320 -20 -367 -2 -590 -12
-590 -28 0 -10 -38 -13 -192 -13 -106 -1 -238 -5 -293 -10 -55 -5 -153 -13
-219 -16 -117 -7 -118 -7 -112 14 5 15 2 22 -14 27 -11 3 -20 12 -20 20 0 7
-3 20 -6 28 -8 23 26 26 226 20 96 -2 481 -8 855 -12z m-1536 -10 c20 -13 -3
-41 -33 -41 -27 0 -50 -15 -43 -27 7 -11 -549 -10 -560 1 -4 3 4 6 17 6 19 0
21 3 12 12 -7 7 -12 16 -12 20 0 4 73 8 163 8 115 1 171 5 192 15 35 15 241
20 264 6z m941 -188 c12 -11 -32 -22 -109 -28 -47 -4 -115 -10 -151 -15 -60
-7 -57 -8 55 -9 77 -2 113 -5 100 -11 -11 -5 -94 -9 -185 -9 -150 1 -161 2
-125 14 33 10 35 13 15 14 -14 1 -32 6 -40 11 -27 17 7 35 78 41 68 6 353 0
362 -8z m-1471 -7 c-9 -8 -99 -13 -99 -5 0 5 23 9 52 9 28 0 49 -2 47 -4z
m-2959 -206 c36 -24 81 -51 100 -61 l35 -18 -46 -1 c-53 0 -125 34 -177 83
-33 31 -92 109 -92 122 0 3 26 -14 58 -38 31 -24 86 -63 122 -87z m7566 97
c-9 -38 -84 -116 -137 -142 -34 -18 -64 -25 -101 -25 -52 1 -53 1 -23 14 17 7
82 52 145 99 63 47 116 84 118 82 3 -2 2 -15 -2 -28z m-6391 -29 c153 -51 155
-52 155 -89 l0 -29 -37 19 c-21 10 -55 23 -76 29 -31 9 -38 8 -46 -6 -11 -21
-98 -334 -107 -384 -7 -41 -23 -47 -68 -27 -42 20 -42 25 9 194 15 50 33 113
40 140 8 28 18 63 24 78 6 16 11 32 11 37 0 11 -56 30 -90 30 -37 0 -42 8 -23
37 20 31 39 28 208 -29z m5088 0 c7 -11 3 -24 -14 -47 -25 -34 -86 -77 -95
-68 -8 8 44 110 64 125 19 14 32 12 45 -10z m-4640 -99 c45 -12 46 4 -20 -268
-46 -193 -50 -228 -20 -223 9 2 17 -2 17 -9 0 -35 -70 -50 -108 -23 -32 22
-29 61 23 274 25 102 45 199 45 216 0 47 5 49 63 33z m3975 -48 c14 -8 24 -90
42 -335 10 -146 19 -173 51 -155 30 16 24 -16 -7 -40 -31 -24 -86 -27 -107 -6
-19 18 -25 64 -41 305 -7 107 -16 202 -20 212 -5 11 -2 18 11 21 30 8 57 7 71
-2z m702 -41 c13 -13 20 -33 20 -60 0 -49 -42 -100 -100 -124 -38 -15 -39 -17
-29 -43 16 -43 29 -53 67 -53 27 0 42 8 68 35 18 19 35 35 38 35 4 0 -5 -23
-19 -50 -64 -126 -219 -113 -255 21 -16 56 -7 131 21 175 46 76 144 109 189
64z m-862 -42 c22 -29 23 -57 3 -77 -12 -12 -27 -21 -35 -21 -41 0 -64 79 -28
99 23 14 48 13 60 -1z m-337 -118 c4 -63 7 -124 8 -134 1 -15 6 -12 24 15 12
19 39 43 59 54 30 16 40 17 62 7 35 -16 46 -48 46 -140 0 -120 8 -152 36 -152
13 0 24 -4 24 -9 0 -18 -58 -51 -90 -51 -50 0 -59 21 -60 132 0 96 -10 148
-30 148 -5 0 -20 -19 -32 -42 -19 -36 -23 -61 -25 -151 -1 -59 -5 -112 -8
-117 -8 -13 -72 -13 -80 0 -6 10 -20 223 -28 437 -5 123 -5 123 58 120 l30 -2
6 -115z m-3659 80 c56 -69 -17 -150 -136 -150 -32 0 -36 -3 -36 -26 0 -28 16
-65 34 -76 17 -12 71 -9 84 4 6 6 15 8 19 4 5 -4 -7 -21 -25 -37 -39 -35 -91
-39 -140 -9 -96 59 -73 245 38 303 49 26 136 19 162 -13z m4537 -36 c61 -51
68 -180 15 -257 -31 -45 -101 -87 -144 -87 -36 0 -86 34 -106 71 -24 46 -22
134 3 191 45 99 162 141 232 82z m-1055 -20 c32 -31 20 -43 -39 -37 -42 4 -60
2 -81 -11 -41 -28 -66 -98 -71 -201 -4 -80 -2 -95 19 -135 40 -78 116 -95 189
-41 34 26 40 26 32 4 -28 -80 -156 -126 -240 -86 -78 37 -130 186 -103 298 25
105 93 193 167 215 47 14 110 11 127 -6z m-1839 -49 c-1 -27 -11 -129 -24
-226 -26 -204 -25 -244 4 -245 38 -2 40 -5 16 -24 -48 -41 -131 -16 -131 39
l0 25 -32 -31 c-105 -100 -201 0 -157 162 23 84 98 144 180 145 35 0 37 2 43
43 4 23 7 70 7 105 l1 63 47 -3 46 -3 0 -50z m-1201 4 c33 -26 37 -96 7 -123
-26 -23 -87 -45 -128 -46 -29 0 -33 -3 -33 -25 0 -31 41 -75 70 -75 11 0 36 7
55 15 34 13 35 13 25 -5 -19 -36 -61 -60 -104 -60 -53 0 -85 17 -113 59 -54
80 -4 234 87 270 44 17 105 13 134 -10z m1364 -21 c18 -18 14 -63 -7 -82 -23
-21 -66 -8 -76 24 -15 47 50 91 83 58z m2214 -28 c4 -19 11 -82 15 -140 8
-103 8 -105 33 -106 16 0 24 -5 22 -15 -9 -43 -111 -68 -128 -31 -4 9 -13 85
-20 167 -13 164 -12 167 41 163 25 -3 31 -8 37 -38z m-3412 10 c15 -15 18 -28
14 -52 l-5 -33 17 27 c34 52 100 63 139 23 14 -13 25 -36 25 -50 l0 -27 30 31
c39 39 63 45 98 27 48 -25 57 -61 38 -163 -22 -121 -21 -153 4 -153 27 0 25
-16 -5 -36 -32 -21 -80 -10 -102 22 -14 22 -14 32 1 113 27 147 18 182 -31
129 -28 -31 -47 -79 -63 -160 -13 -63 -16 -68 -39 -68 -58 0 -60 15 -31 204
11 76 4 99 -28 80 -26 -16 -71 -113 -83 -181 -6 -34 -16 -63 -22 -66 -7 -2
-27 0 -44 5 -41 11 -41 15 -8 194 14 74 25 140 25 145 0 17 50 9 70 -11z
m1649 -2 c17 -46 -16 -86 -62 -74 -33 8 -43 40 -23 71 22 34 73 35 85 3z
m3015 -36 c-18 -15 -34 -33 -36 -41 -2 -8 -15 -15 -29 -16 -13 -1 -33 -6 -44
-10 -11 -4 14 15 55 43 84 57 101 65 54 24z m-4011 -84 c24 -28 30 -59 18 -90
-14 -37 -51 -59 -113 -67 -47 -5 -53 -9 -56 -32 -4 -34 32 -79 64 -79 14 0 38
7 54 15 39 20 41 -1 5 -35 -36 -33 -113 -39 -158 -11 -41 25 -57 58 -57 115 0
94 54 185 123 205 44 14 99 4 120 -21z m3857 -20 c-14 -11 -24 -26 -23 -32 2
-6 -7 -18 -20 -26 -67 -42 -238 -147 -277 -168 -111 -62 -263 -141 -322 -167
-34 -15 -99 -45 -143 -66 -288 -134 -829 -301 -1171 -359 -162 -28 -418 -60
-573 -71 -176 -13 -579 -12 -740 1 -358 30 -762 100 -1011 175 -200 61 -417
134 -479 162 -40 18 -78 33 -83 33 -20 0 -197 84 -223 105 -11 9 -14 14 -7 10
6 -3 12 -2 12 3 0 4 -16 16 -36 26 -20 9 -35 19 -32 21 2 2 60 -19 128 -47
278 -113 489 -182 784 -258 252 -64 310 -76 556 -114 268 -41 411 -51 770 -50
410 1 558 13 945 80 144 25 567 133 728 186 320 104 773 302 985 429 37 23 74
45 82 50 8 5 35 20 60 34 25 13 56 33 70 44 33 27 52 26 20 -1z m-2158 -130
c3 -142 3 -143 26 -141 27 3 28 -11 2 -37 -22 -22 -79 -27 -98 -8 -7 7 -12 22
-12 34 0 38 -18 37 -34 0 -18 -43 -70 -72 -110 -62 -76 19 -90 178 -23 277 41
61 80 79 168 79 l78 0 3 -142z m-1169 111 c7 -12 6 -49 -3 -120 -19 -151 -19
-153 8 -157 33 -5 27 -30 -12 -49 -42 -19 -84 -11 -95 20 -7 20 5 285 14 315
7 19 75 11 88 -9z m775 5 c38 -26 44 -58 32 -161 -11 -98 -3 -137 24 -127 26
10 26 -14 0 -35 -32 -25 -71 -27 -96 -4 -15 14 -18 32 -18 134 0 65 -4 120 -9
124 -14 8 -58 -53 -76 -106 -9 -24 -19 -72 -22 -107 l-6 -63 -36 3 -36 3 0
170 1 170 28 3 c35 4 56 -13 56 -48 0 -40 10 -43 34 -7 18 26 76 67 96 67 3 0
16 -7 28 -16z m-486 -11 c21 -19 23 -44 6 -61 -19 -19 -37 -14 -50 13 -15 33
-44 30 -71 -7 -14 -19 -21 -48 -25 -102 -4 -70 -3 -76 21 -100 32 -31 59 -33
103 -5 39 24 44 14 13 -25 -31 -40 -76 -59 -121 -53 -76 10 -112 67 -106 167
4 77 36 137 91 170 40 25 113 26 139 3z m159 -135 l-4 -148 27 0 c32 0 34 -15
4 -34 -40 -26 -76 -30 -105 -11 l-26 17 6 155 c4 85 9 159 13 164 3 6 25 9 47
7 l42 -3 -4 -147z m-2285 -176 c-4 -3 -14 2 -24 12 -16 18 -16 18 6 6 13 -6
21 -14 18 -18z m19 -32 c7 -12 -2 -12 -30 0 -19 8 -19 9 2 9 12 1 25 -3 28 -9z"/>
<path d="M5375 8382 c-20 -11 -29 -23 -27 -35 2 -10 -1 -24 -7 -31 -28 -33 46
-118 119 -137 80 -21 180 25 180 83 0 13 -14 39 -30 58 -16 19 -30 38 -30 42
0 14 -40 29 -55 20 -12 -6 -8 -12 20 -25 44 -21 45 -38 3 -33 -18 2 -43 4 -56
5 -15 1 -26 10 -33 28 -17 46 -36 52 -84 25z m63 -30 c2 -7 -2 -10 -12 -6 -9
3 -16 11 -16 16 0 13 23 5 28 -10z m125 -129 c-7 -2 -21 -2 -30 0 -10 3 -4 5
12 5 17 0 24 -2 18 -5z"/>
<path d="M5020 8325 c0 -8 2 -15 4 -15 2 0 6 7 10 15 3 8 1 15 -4 15 -6 0 -10
-7 -10 -15z"/>
<path d="M4793 8298 c-13 -6 -23 -15 -23 -20 0 -8 17 -1 50 22 20 13 1 12 -27
-2z"/>
<path d="M4915 8206 c-3 -9 -7 -23 -10 -31 -2 -8 -1 -15 4 -15 10 0 25 50 17
58 -3 2 -8 -3 -11 -12z"/>
<path d="M6794 7854 c-41 -94 -154 -377 -150 -381 1 -2 56 -6 121 -10 l118 -6
-7 74 c-8 92 -47 373 -52 378 -2 2 -15 -23 -30 -55z"/>
<path d="M8015 7691 c-92 -42 -175 -230 -175 -397 0 -112 32 -159 89 -130 45
24 116 133 143 221 22 70 47 184 53 242 7 55 5 62 -13 72 -29 15 -51 14 -97
-8z"/>
<path d="M8767 7700 c-36 -28 -75 -102 -98 -185 -31 -113 -25 -124 50 -85 96
48 141 114 141 204 0 82 -38 109 -93 66z"/>
<path d="M2628 7673 c-42 -46 -65 -94 -87 -177 -26 -98 -26 -96 2 -96 47 0
136 70 168 132 22 43 25 124 5 151 -20 25 -59 21 -88 -10z"/>
<path d="M3653 7691 c-16 -11 -42 -40 -57 -66 -29 -48 -74 -210 -63 -222 4 -3
24 -1 44 5 130 39 217 242 124 291 -13 7 -26 5 -48 -8z"/>
<path d="M6023 6773 c-18 -7 -16 -23 2 -23 8 0 15 7 15 15 0 8 -1 15 -2 14 -2
0 -9 -3 -15 -6z"/>
<path d="M5888 6665 c-37 -44 -53 -85 -32 -85 8 0 12 -5 9 -10 -4 -6 -11 -8
-16 -5 -5 4 -9 2 -9 -4 0 -6 -12 -14 -27 -17 -23 -6 -64 -31 -105 -64 -4 -3 5
-6 20 -5 15 0 38 10 52 23 26 24 40 28 40 12 0 -18 20 -11 42 15 12 14 30 25
39 25 27 0 31 15 12 49 -15 25 -16 35 -6 62 7 18 12 33 10 34 -1 1 -14 -12
-29 -30z"/>
<path d="M5991 6657 c-7 -10 -21 -17 -31 -17 -10 0 -23 -6 -29 -14 -10 -12 -7
-15 16 -18 20 -2 27 -8 25 -20 -2 -10 -1 -18 2 -18 11 0 37 62 34 82 -3 20 -4
20 -17 5z"/>
<path d="M5774 6473 c-17 -8 -36 -24 -42 -34 -19 -31 5 -22 46 16 41 38 41 39
-4 18z"/>
<path d="M5875 6381 c-3 -6 4 -9 15 -8 11 1 20 5 20 9 0 11 -28 10 -35 -1z"/>
<path d="M5306 6249 c-74 -43 -206 -135 -206 -145 0 -2 11 1 25 6 14 5 30 8
37 6 61 -19 65 -18 64 25 -1 31 4 44 19 53 11 6 22 13 25 16 3 3 17 11 33 19
25 13 29 13 42 -5 8 -10 15 -22 15 -27 0 -4 12 -7 28 -7 65 0 96 1 99 4 2 1
-18 13 -45 26 -54 27 -65 39 -50 57 23 28 -1 20 -86 -28z m-96 -93 c0 -3 -4
-8 -10 -11 -5 -3 -10 -1 -10 4 0 6 5 11 10 11 6 0 10 -2 10 -4z"/>
<path d="M5552 6078 c-7 -7 -12 -17 -12 -23 0 -6 -12 -18 -27 -27 -32 -20 -18
-24 24 -6 15 6 34 10 42 9 13 -2 31 15 31 32 0 4 -7 7 -15 7 -8 0 -15 5 -15
10 0 14 -13 13 -28 -2z"/>
<path d="M5263 6063 c-18 -7 -16 -23 2 -23 8 0 15 7 15 15 0 8 -1 15 -2 14 -2
0 -9 -3 -15 -6z"/>
<path d="M5310 6010 c0 -5 6 -10 14 -10 8 0 18 5 21 10 3 6 -3 10 -14 10 -12
0 -21 -4 -21 -10z"/>
<path d="M5400 5950 c-11 -7 -7 -10 18 -10 20 0 31 4 27 10 -8 13 -26 13 -45
0z"/>
<path d="M9825 6460 c-3 -5 -1 -10 4 -10 6 0 11 5 11 10 0 6 -2 10 -4 10 -3 0
-8 -4 -11 -10z"/>
<path d="M9430 6229 c0 -5 5 -7 10 -4 6 3 10 8 10 11 0 2 -4 4 -10 4 -5 0 -10
-5 -10 -11z"/>
<path d="M8996 4611 c-4 -6 -4 -16 0 -22 5 -8 -1 -10 -18 -7 -18 3 -29 -1 -38
-15 -11 -18 -10 -19 12 -12 12 4 37 9 55 12 40 6 61 29 45 45 -9 9 -12 8 -12
-5 0 -22 -16 -22 -28 -1 -6 11 -11 13 -16 5z"/>
<path d="M8875 4525 l-30 -14 26 -1 c15 0 32 7 39 15 15 18 5 18 -35 0z"/>
<path d="M9510 4323 c0 -7 -7 -13 -15 -13 -8 0 -15 -5 -15 -11 0 -6 9 -8 20
-4 23 7 28 -10 5 -19 -8 -3 -14 -13 -14 -23 1 -17 2 -17 6 0 2 9 11 17 19 17
8 0 14 8 14 18 0 20 -20 54 -20 35z"/>
<path d="M9457 4274 c-8 -8 1 -24 14 -24 5 0 9 7 9 15 0 15 -12 20 -23 9z"/>
<path d="M3700 6199 c0 -5 5 -7 10 -4 6 3 10 8 10 11 0 2 -4 4 -10 4 -5 0 -10
-5 -10 -11z"/>
<path d="M1790 6175 c7 -8 17 -15 22 -15 6 0 5 7 -2 15 -7 8 -17 15 -22 15 -6
0 -5 -7 2 -15z"/>
<path d="M2285 5950 c3 -5 8 -10 11 -10 2 0 4 5 4 10 0 6 -5 10 -11 10 -5 0
-7 -4 -4 -10z"/>
<path d="M2248 5933 c7 -3 16 -2 19 1 4 3 -2 6 -13 5 -11 0 -14 -3 -6 -6z"/>
<path d="M2374 5145 c0 -49 1 -71 3 -48 2 23 2 64 0 90 -2 26 -3 8 -3 -42z"/>
<path d="M2495 5020 c3 -5 10 -10 16 -10 5 0 9 5 9 10 0 6 -7 10 -16 10 -8 0
-12 -4 -9 -10z"/>
<path d="M2518 4984 c-5 -4 -8 -23 -8 -43 0 -25 3 -32 11 -24 6 6 9 25 7 43
-2 17 -6 28 -10 24z"/>
<path d="M2367 4973 c-11 -10 -8 -206 3 -223 5 -8 11 -12 13 -10 2 3 7 53 10
111 5 83 4 109 -7 118 -7 6 -16 8 -19 4z"/>
<path d="M4232 4579 c11 -6 29 -6 50 0 32 9 31 9 -17 10 -38 0 -46 -2 -33 -10z"/>
<path d="M4320 4560 c0 -5 5 -10 10 -10 6 0 10 5 10 10 0 6 -4 10 -10 10 -5 0
-10 -4 -10 -10z"/>
<path d="M3811 4553 c0 -6 -4 -19 -8 -28 -5 -15 -3 -16 14 -7 11 6 23 8 27 5
3 -3 6 -1 6 6 0 7 -6 11 -14 8 -9 -4 -17 1 -19 11 -3 9 -5 12 -6 5z"/>
<path d="M4548 4533 c7 -3 16 -2 19 1 4 3 -2 6 -13 5 -11 0 -14 -3 -6 -6z"/>
<path d="M5570 4469 c0 -5 5 -7 10 -4 6 3 10 8 10 11 0 2 -4 4 -10 4 -5 0 -10
-5 -10 -11z"/>
<path d="M1890 4426 l0 -86 49 0 48 0 7 77 c3 42 4 78 2 80 -2 2 -26 6 -55 10
l-51 6 0 -87z"/>
<path d="M2300 4279 c0 -5 5 -7 10 -4 6 3 10 8 10 11 0 2 -4 4 -10 4 -5 0 -10
-5 -10 -11z"/>
<path d="M907 4263 c-5 -7 -10 -147 -8 -190 1 -9 19 -13 56 -13 l56 0 -3 103
-3 102 -47 3 c-25 2 -49 -1 -51 -5z"/>
<path d="M3380 4020 c0 -5 5 -10 10 -10 6 0 10 5 10 10 0 6 -4 10 -10 10 -5 0
-10 -4 -10 -10z"/>
<path d="M3520 3949 c0 -43 -1 -82 -2 -86 -2 -5 17 -9 42 -11 l45 -3 -2 82
c-1 44 -3 82 -5 84 -2 1 -20 5 -40 8 l-38 6 0 -80z"/>
<path d="M3660 3929 l0 -80 33 3 c17 2 31 6 30 11 -2 4 -3 39 -3 77 l0 70 -30
0 -30 0 0 -81z"/>
<path d="M3393 3863 c9 -2 25 -2 35 0 9 3 1 5 -18 5 -19 0 -27 -2 -17 -5z"/>
<path d="M4476 3749 c3 -5 12 -9 21 -9 19 0 9 13 -12 16 -8 1 -13 -2 -9 -7z"/>
<path d="M911 3763 l-24 -5 6 -120 c3 -66 7 -121 9 -123 2 -2 28 0 58 3 l55 7
3 123 3 122 -43 -1 c-24 -1 -54 -4 -67 -6z"/>
<path d="M1750 3606 l0 -84 61 -4 c33 -1 63 -1 65 1 2 2 4 42 4 88 l0 83 -65
0 -65 0 0 -84z"/>
<path d="M2219 3684 c-2 -14 -2 -44 -1 -109 l2 -60 60 3 60 4 0 79 0 79 -44 0
c-24 0 -51 3 -60 6 -9 3 -17 2 -17 -2z"/>
<path d="M2602 3599 l3 -82 50 0 50 0 3 82 3 81 -56 0 -56 0 3 -81z"/>
<path d="M6958 3353 c45 -2 119 -2 165 0 45 1 8 3 -83 3 -91 0 -128 -2 -82 -3z"/>
<path d="M7273 3343 c9 -2 23 -2 30 0 6 3 -1 5 -18 5 -16 0 -22 -2 -12 -5z"/>
<path d="M7135 3307 c35 -12 418 -11 570 2 77 6 18 8 -250 9 -262 0 -342 -2
-320 -11z"/>
<path d="M8758 3193 c6 -2 18 -2 25 0 6 3 1 5 -13 5 -14 0 -19 -2 -12 -5z"/>
<path d="M6590 3043 c-14 -3 -29 -9 -34 -14 -6 -5 36 -9 107 -9 119 0 155 12
71 24 -50 6 -103 6 -144 -1z"/>
<path d="M6572 2973 c-10 -4 -10 -8 -1 -19 9 -11 40 -14 125 -14 104 0 133 7
103 25 -12 8 -208 14 -227 8z"/>
<path d="M5988 2897 c-38 -5 -68 -13 -68 -18 0 -5 -6 -9 -14 -9 -8 0 -27 -5
-43 -12 -15 -6 -38 -10 -50 -9 -12 1 -30 -2 -40 -8 -14 -8 6 -11 77 -13 164
-3 424 4 440 13 10 6 2 8 -26 9 -51 0 -104 18 -104 35 0 27 -49 30 -172 12z"/>
<path d="M6742 2851 c-22 -13 11 -21 81 -20 101 2 124 14 42 22 -90 9 -107 9
-123 -2z"/>
<path d="M5922 2761 c-23 -14 117 -21 264 -14 105 5 129 9 99 14 -55 11 -347
11 -363 0z"/>
<path d="M5909 2640 c-15 -10 54 -20 136 -20 88 0 126 19 45 22 -113 5 -170 4
-181 -2z"/>
<path d="M6753 2643 c26 -2 67 -2 90 0 23 2 2 3 -48 3 -49 0 -68 -1 -42 -3z"/>
<path d="M5963 2599 c-51 -12 -56 -29 -10 -30 17 0 80 -2 139 -3 112 -4 143 3
120 26 -16 16 -189 21 -249 7z"/>
<path d="M4674 2823 c4 -9 1 -20 -5 -24 -22 -13 2 -29 44 -29 23 0 49 -5 57
-10 10 -6 11 -10 3 -10 -7 0 -13 -4 -13 -10 0 -15 83 -11 104 5 13 10 44 15
85 16 42 0 59 3 46 8 -19 8 -19 8 0 19 18 10 18 11 3 12 -10 0 -17 5 -15 12 3
17 -67 26 -202 27 -102 1 -112 -1 -107 -16z"/>
<path d="M4705 2691 c-50 -7 -50 -7 -22 -19 52 -22 289 -12 251 11 -16 9 -178
15 -229 8z"/>
<path d="M3545 2630 c-13 -6 10 -9 68 -9 56 -1 86 3 82 9 -7 12 -122 12 -150
0z"/>
<path d="M5205 2500 c3 -5 8 -10 11 -10 2 0 4 5 4 10 0 6 -5 10 -11 10 -5 0
-7 -4 -4 -10z"/>
<path d="M3363 2493 c9 -2 23 -2 30 0 6 3 -1 5 -18 5 -16 0 -22 -2 -12 -5z"/>
<path d="M4708 2353 c6 -2 18 -2 25 0 6 3 1 5 -13 5 -14 0 -19 -2 -12 -5z"/>
<path d="M5778 1853 c6 -2 18 -2 25 0 6 3 1 5 -13 5 -14 0 -19 -2 -12 -5z"/>
<path d="M7896 1508 c-16 -23 -22 -93 -8 -101 11 -8 49 27 57 52 9 30 -2 71
-20 71 -7 0 -21 -10 -29 -22z"/>
<path d="M3044 1472 c-18 -13 -44 -56 -44 -74 0 -22 37 -24 64 -5 23 17 27 80
6 84 -8 2 -20 0 -26 -5z"/>
<path d="M7546 1408 c-11 -16 -16 -46 -16 -98 0 -80 12 -114 47 -137 20 -14
24 -13 48 11 22 23 25 33 25 103 0 60 -5 85 -20 111 -24 39 -61 43 -84 10z"/>
<path d="M4621 1177 c-39 -19 -71 -91 -71 -157 0 -99 41 -105 86 -12 20 40 28
72 28 115 1 65 -6 73 -43 54z"/>
<path d="M3502 1354 c-27 -19 -55 -71 -46 -85 8 -14 55 -2 71 19 13 18 18 82
5 82 -4 0 -18 -7 -30 -16z"/>
<path d="M4317 1209 c-21 -12 -47 -61 -47 -89 0 -28 35 -26 65 5 41 40 26 108
-18 84z"/>
<path d="M8120 1110 c-9 -6 -10 -10 -3 -10 6 0 15 5 18 10 8 12 4 12 -15 0z"/>
<path d="M5956 1150 c-32 -39 -49 -102 -43 -158 6 -51 17 -66 45 -58 37 12 85
180 66 230 -10 25 -40 19 -68 -14z"/>
</g>
</svg>
